<?xml version="1.0" standalone="no"?>
<!DOCTYPE svg PUBLIC "-//W3C//DTD SVG 1.1//EN" "http://www.w3.org/Graphics/SVG/1.1/DTD/svg11.dtd" >
<svg xmlns="http://www.w3.org/2000/svg">
<metadata>Generated by IcoMoon</metadata>
<defs>
<font id="icomoon" horiz-adv-x="1024">
<font-face units-per-em="1024" ascent="960" descent="-64" />
<missing-glyph horiz-adv-x="1024" />
<glyph unicode="&#x20;" horiz-adv-x="512" d="" />
<glyph unicode="&#xe900;" glyph-name="arrow-right-circle" d="M512 917.333c-260.267 0-469.333-209.067-469.333-469.333s209.067-469.333 469.333-469.333 469.333 209.067 469.333 469.333c0 260.267-209.067 469.333-469.333 469.333zM512 64c-213.333 0-384 170.667-384 384s170.667 384 384 384c213.333 0 384-170.667 384-384s-170.667-384-384-384zM721.067 465.067c-4.267 4.267-4.267 8.533-8.533 12.8l-170.667 170.667c-17.067 17.067-42.667 17.067-59.733 0s-17.067-42.667 0-59.733l98.133-98.133h-238.933c-25.6 0-42.667-17.067-42.667-42.667s17.067-42.667 42.667-42.667h238.933l-98.133-98.133c-17.067-17.067-17.067-42.667 0-59.733 8.533-8.533 21.333-12.8 29.867-12.8s21.333 4.267 29.867 12.8l170.667 170.667c4.267 4.267 8.533 8.533 8.533 12.8 4.267 12.8 4.267 21.333 0 34.133z" />
<glyph unicode="&#xe901;" glyph-name="arrow2-right" d="M384 149.333c-12.8 0-21.333 4.267-29.867 12.8-17.067 17.067-17.067 42.667 0 59.733l226.133 226.133-226.133 226.133c-17.067 17.067-17.067 42.667 0 59.733s42.667 17.067 59.733 0l256-256c17.067-17.067 17.067-42.667 0-59.733l-256-256c-8.533-8.533-17.067-12.8-29.867-12.8z" />
<glyph unicode="&#xe902;" glyph-name="bell" d="M605.867 102.4c-21.333 12.8-46.933 4.267-59.733-17.067s-38.4-25.6-59.733-17.067c-8.533 4.267-12.8 8.533-17.067 17.067-12.8 21.333-38.4 25.6-59.733 17.067-21.333-12.8-25.6-38.4-17.067-59.733 12.8-17.067 25.6-34.133 46.933-46.933s42.667-17.067 64-17.067c42.667 0 85.333 21.333 110.933 64 21.333 21.333 12.8 46.933-8.533 59.733zM938.667 277.333c-46.933 0-85.333 38.4-85.333 85.333v213.333c0 187.733-153.6 341.333-341.333 341.333s-341.333-153.6-341.333-341.333v-213.333c0-46.933-38.4-85.333-85.333-85.333-25.6 0-42.667-17.067-42.667-42.667s17.067-42.667 42.667-42.667h853.333c25.6 0 42.667 17.067 42.667 42.667s-17.067 42.667-42.667 42.667zM234.667 277.333c12.8 25.6 21.333 55.467 21.333 85.333v213.333c0 140.8 115.2 256 256 256s256-115.2 256-256v-213.333c0-29.867 8.533-59.733 21.333-85.333h-554.667z" />
<glyph unicode="&#xe903;" glyph-name="cdt" horiz-adv-x="853" d="M594.357 874.671v-256.005c0-33.028-37.987-51.606-64.057-31.329l-82.299 64.011-82.299-64.011c-26.071-20.277-64.057-1.699-64.057 31.329v256.013l-71.649 0.002c-8.035-0.216-16.377-9.514-16.661-22.202l-0.010-680.037c0.294-13.611 8.636-22.909 15.525-23.109l522.49-0.015c8.035 0.216 16.377 9.514 16.661 22.202l0.010 680.037c-0.29 13.411-8.393 22.635-16.317 23.109l-157.336 0.005zM514.977 874.674l-133.953 0.004v-174.859l42.609 33.141c14.332 11.147 34.402 11.147 48.735 0l42.609-33.141v174.855zM640 64.003l-412.298 0.012c-55.585 1.494-98.453 49.278-99.702 107.505l0.010 681.883c1.239 57.304 44.108 105.088 100.839 106.597l524.782-0.015c55.585-1.494 98.453-49.278 99.702-107.505l-0.010-681.883c-1.239-57.304-44.108-105.088-100.839-106.597l-27.18 0.001-0.019-28.474c-2.597-55.244-46.438-99.599-100.801-99.527h-523.609c-54.977-0.036-99.017 45.224-100.876 102.46v708.207c0 23.564 19.103 42.667 42.667 42.667s42.667-19.103 42.667-42.667l-0.023-706.805c0.359-10.908 7.779-18.534 15.538-18.529h523.693c7.641-0.010 14.999 7.435 15.458 16.197v26.473z" />
<glyph unicode="&#xe904;" glyph-name="credit-card" horiz-adv-x="1365" d="M1251.556 490.667h-1137.798l-0.109-380.161c2.209-32.652 28.206-58.649 57.019-60.728h1019.679c31.198 5.55 55.66 30.012 61.21 61.21v379.679zM41.043 616.431c12.33 10.276 28.192 16.458 45.498 16.458h1165.014v140.99c0 31.419-25.47 56.889-56.889 56.889h-1019.679c-32.268-5.741-57.329-31.712-61.714-64.442-4.172-31.141-32.798-53.003-63.939-48.832s-53.003 32.798-48.832 63.939c11.342 84.666 77.944 151.267 162.609 162.609l7.554 0.504h1024c94.257 0 170.667-76.41 170.667-170.667v-667.212l-0.504-7.554c-11.342-84.666-77.944-151.267-162.609-162.609l-7.554-0.504-1027.839 0.13c-89.439 6.050-160.648 77.259-166.827 170.537v455.111c0 25.92 17.335 47.791 41.043 54.653zM739.556 220.444c31.419 0 56.889-25.47 56.889-56.889s-25.47-56.889-56.889-56.889h-512c-31.419 0-56.889 25.47-56.889 56.889s25.47 56.889 56.889 56.889h512zM967.111 277.333v-56.889h113.778v56.889h-113.778zM910.222 391.111h227.556c31.419 0 56.889-25.47 56.889-56.889v-170.667c0-31.419-25.47-56.889-56.889-56.889h-227.556c-31.419 0-56.889 25.47-56.889 56.889v170.667c0 31.419 25.47 56.889 56.889 56.889z" />
<glyph unicode="&#xe905;" glyph-name="cta_ahorros" horiz-adv-x="1069" d="M197.639 722.062c-3.549 51.227-23.535 100.089-57.179 139.211-22.501 26.165-4.999 66.757 29.473 68.358 106.846 4.962 256.474-17.3 330.331-56.017 15.102 1.135 24.989 1.646 34.128 1.646 190.119-0.599 358.628-122.516 418.668-302.907s-1.797-378.974-154.488-494.012c-1.6-1.143-3.254-2.225-5.243-3.429v-57.289c0-22.867-18.538-41.405-41.405-41.405h-136.039c-22.867 0-41.405 18.538-41.405 41.405v13.010h-107.644v-13.282c0-22.867-18.538-41.405-41.405-41.405h-136.039c-22.867 0-41.405 18.538-41.405 41.405v77.255c-65.807 55.268-114.084 128.291-138.401 208.104h-37.856c-37.894 0-68.613 30.719-68.613 68.613v163.246c0 37.894 30.719 68.613 68.613 68.613h52.92c17.951 43.445 42.647 83.536 72.99 118.879zM269.926 789.3c9.13 6.756 18.546 13.178 28.23 19.244 19.379 12.139 44.93 6.27 57.069-13.11s6.27-44.93-13.11-57.069c-70.298-44.035-123.139-111.098-149.505-189.747-5.657-16.873-21.462-28.244-39.258-28.244h-67.426v-134.851h54.91c17.822 0 33.645-11.404 39.28-28.312l2.582-8.194c19.557-80.312 66.083-151.48 131.804-201.612 10.827-8.259 16.447-20.814 16.292-33.459 0.001-0.093 0.001-0.185 0.001-0.278v-54.91h53.228v13.010c0 0.091 0 0.181 0.001 0.272-0.001 22.867 18.537 41.405 41.404 41.405h190.454c22.867 0 41.405-18.538 41.405-41.405v-13.010h53.228v40.218c0 14.987 8.098 28.804 21.174 36.126 2.2 1.232 4.803 2.653 9.856 5.402l0.544 0.297c4.836 2.643 8.266 4.612 7.529 4.056 123.412 93.015 173.67 254.438 124.865 401.074-48.809 146.649-185.799 245.761-340.226 246.248-8.584 0-20.89-0.81-42.612-2.583-12.487-1.019-24.132 3.613-32.414 11.759-44.048 22.261-130.829 39.039-210.415 44.204 8.791-18.138 15.858-37.066 21.108-56.529zM1065.405 433.159c0-22.867-18.538-41.405-41.405-41.405s-41.405 18.538-41.405 41.405v81.623c0 22.867 18.538 41.405 41.405 41.405s41.405-18.538 41.405-41.405v-81.623zM575.080 682.276c-22.557 3.752-37.802 25.081-34.050 47.638s25.081 37.802 47.638 34.050c141.998-23.621 253.183-135.056 276.486-277.106 3.702-22.566-11.59-43.86-34.156-47.562s-43.86 11.59-47.562 34.156c-17.561 107.048-101.348 191.023-208.356 208.824zM343.807 534.298c-22.54 0-40.812 18.272-40.812 40.812s18.272 40.812 40.812 40.812c22.54 0 40.812-18.272 40.812-40.812s-18.272-40.812-40.812-40.812z" />
<glyph unicode="&#xe906;" glyph-name="cta_corriente" horiz-adv-x="1422" d="M1041.364 792.888v-161.124h188.817l-188.817 161.124zM1260.802 526.73c-3.003-0.529-6.092-0.805-9.247-0.805h-263.111c-29.227 0-52.92 23.693-52.92 52.92v271.347h-774.372c-31.381 0-53.747-19.086-53.747-38.102v-728.178c0-19.017 22.366-38.102 53.747-38.102h1045.903c31.381 0 53.747 19.086 53.747 38.102v442.819zM993.722 956.031c12.593 0 24.772-4.49 34.351-12.664l320-273.067c11.783-10.054 18.569-24.766 18.569-40.255v-546.133c0-81.524-73.147-143.942-159.587-143.942h-1045.903c-86.44 0-159.587 62.418-159.587 143.942v728.178c0 81.524 73.147 143.942 159.587 143.942h832.569zM711.111 500.92c29.227 0 52.92-23.693 52.92-52.92s-23.693-52.92-52.92-52.92h-426.667c-29.227 0-52.92 23.693-52.92 52.92s23.693 52.92 52.92 52.92h426.667zM711.111 330.253c29.227 0 52.92-23.693 52.92-52.92s-23.693-52.92-52.92-52.92h-426.667c-29.227 0-52.92 23.693-52.92 52.92s23.693 52.92 52.92 52.92h426.667zM988.444 330.253c29.227 0 52.92-23.693 52.92-52.92s-23.693-52.92-52.92-52.92h-78.222c-29.227 0-52.92 23.693-52.92 52.92s23.693 52.92 52.92 52.92h78.222z" />
<glyph unicode="&#xe907;" glyph-name="cta_hipotecario" horiz-adv-x="890" d="M581.889 863.83v10.998c0 22.873 18.542 41.416 41.416 41.416h163.246c22.873 0 41.416-18.542 41.416-41.416v-197.57l42.969-32.578c10.327-7.83 16.394-20.043 16.394-33.002v-507.26c0-71.052-58.642-128.216-130.459-128.216h-623.304c-71.817 0-130.459 57.164-130.459 128.216v507.26c0 12.96 6.067 25.172 16.394 33.002l400.696 303.801c14.795 11.218 35.248 11.218 50.044 0l111.65-84.651zM664.72 801.028l80.415-60.97v93.353h-80.415v-32.384zM270.237 59.032v287.342c0 22.873 18.542 41.416 41.416 41.416h265.35c22.873 0 41.416-18.542 41.416-41.416v-287.342h138.452c26.537 0 47.628 20.559 47.628 45.385v486.687l-359.28 272.4-359.28-272.4v-486.687c0-24.825 21.091-45.385 47.628-45.385h136.671zM353.068 59.032h182.518v245.927h-182.518v-245.927z" />
<glyph unicode="&#xe908;" glyph-name="ecosistema" d="M775.583 144.593h-2.842c-23.564 0-42.667 19.103-42.667 42.667s19.103 42.667 42.667 42.667h104.296c23.564 0 42.667-19.103 42.667-42.667v-104.296c0-23.564-19.103-42.667-42.667-42.667-23.479 0-42.529 18.965-42.666 42.413-145.811-130.283-356.939-161.039-534.897-75.128-187.573 90.552-296.574 290.577-270.991 497.287 2.894 23.386 24.199 39.997 47.584 37.103s39.997-24.199 37.103-47.584c-21.091-170.409 68.769-335.308 223.402-409.958 146.014-70.49 319.115-45.706 439.010 60.165zM248.417 751.407h2.842c23.564 0 42.667-19.103 42.667-42.667s-19.103-42.667-42.667-42.667h-104.296c-11.782 0-22.449 4.776-30.17 12.497s-12.497 18.388-12.497 30.17v104.296c0 23.564 19.103 42.667 42.667 42.667 23.479 0 42.529-18.965 42.666-42.413 145.811 130.283 356.939 161.039 534.897 75.128 187.573-90.552 296.574-290.577 270.991-497.287-2.894-23.386-24.199-39.997-47.584-37.103s-39.997 24.199-37.103 47.584c21.091 170.409-68.769 335.308-223.402 409.958-146.014 70.49-319.115 45.706-439.010-60.165zM554.667 572.916c15.881-5.844 31.872-14.471 47.391-25.965 18.936-14.025 22.917-40.745 8.892-59.681-11.717-15.82-32.295-21.202-49.792-14.367 21.971-12.269 37.764-31.448 42.611-57.884 6.328-34.518-10.287-73.533-42.929-92.803-2.029-1.198-4.087-2.308-6.173-3.332-0.027-23.541-19.119-42.617-42.667-42.617-23.564 0-42.667 19.103-42.667 42.667v0.153c-14.104 5.574-28.569 13.623-43.178 24.078-19.163 13.714-23.58 40.365-9.866 59.528 7.871 10.999 20.005 17.14 32.538 17.783-45.647 26.515-60.133 78.123-27.308 121.871 12.408 16.537 28.895 28.056 47.814 34.321v3.008c0 23.564 19.103 42.667 42.667 42.667s42.667-19.103 42.667-42.667v-6.759zM516.279 496.283c-1.407-0.14-2.835-0.212-4.279-0.212-3.579 0-7.055 0.441-10.377 1.271-4.12-0.58-7.422-2.016-9.821-4.062 2.981-1.404 8.373-3.127 17.039-4.374 18.085-2.668 30.423-5.52 44.888-12.223-0.833 0.532-1.654 1.097-2.46 1.694-13.51 10.006-25.318 15.565-34.991 17.906zM556.068 674.929c-23.138 4.462-38.277 26.837-33.815 49.975s26.837 38.277 49.975 33.815c148.916-28.721 256.518-159.058 256.518-310.718s-107.601-281.997-256.518-310.718c-23.138-4.462-45.512 10.677-49.975 33.815s10.677 45.512 33.815 49.975c108.759 20.976 187.344 116.166 187.344 226.929s-78.585 205.953-187.344 226.929zM467.932 221.071c23.138-4.462 38.277-26.837 33.815-49.975s-26.837-38.277-49.975-33.815c-148.916 28.721-256.518 159.058-256.518 310.718s107.601 281.997 256.518 310.718c23.138 4.462 45.512-10.677 49.975-33.815s-10.677-45.512-33.815-49.975c-108.759-20.976-187.344-116.166-187.344-226.929s78.585-205.953 187.344-226.929zM517.459 395.699c1.014 0.598 2.303 3.56 2.372 3.904-0.129-0.629-6.956 2.451-23.293 4.861-4.155 0.598-8.193 1.349-12.109 2.244 18.82-12.045 29.052-13.358 33.030-11.009z" />
<glyph unicode="&#xe909;" glyph-name="libranza1" horiz-adv-x="1506" d="M1328.88 725.848v53.446c0 33.267-26.968 60.235-60.235 60.235h-1083.363c-34.166-6.078-60.702-33.577-65.344-68.233-4.417-32.972-34.727-56.121-67.7-51.704s-56.121 34.727-51.704 67.7c12.009 89.646 82.529 160.165 172.175 172.175l7.998 0.533h1087.939c99.801 0 180.706-80.905 180.706-180.706v-60.235c0-2.306-0.13-4.582-0.382-6.82l-0.265-523.476c-9.148-96.657-66.027-177.165-146.952-192.51l-11.222-1.054-1137.829 0.274c-86.851 8.315-147.78 94.557-152.701 198.966v383.084c0 33.267 26.968 60.235 60.235 60.235s60.235-26.968 60.235-60.235l-0.069-380.208c2.276-47.628 25.249-80.144 38.040-81.645h1124.767c20.227 7.070 41.268 38.923 45.292 78.769v524.62c0 2.295 0.128 4.561 0.378 6.79zM722.824 181.158c-164.006 0-296.96 132.954-296.96 296.96s132.954 296.96 296.96 296.96c164.006 0 296.96-132.954 296.96-296.96s-132.954-296.96-296.96-296.96zM722.824 293.195c102.13 0 184.922 82.793 184.922 184.922s-82.793 184.922-184.922 184.922c-102.13 0-184.922-82.793-184.922-184.922s82.793-184.922 184.922-184.922zM309.519 534.15c30.946 0 56.033-25.087 56.033-56.033s-25.087-56.033-56.033-56.033h-82.361c-30.946 0-56.033 25.087-56.033 56.033s25.087 56.033 56.033 56.033h82.361zM1213.049 534.15c30.946 0 56.033-25.087 56.033-56.033s-25.087-56.033-56.033-56.033h-82.361c-30.946 0-56.033 25.087-56.033 56.033s25.087 56.033 56.033 56.033h82.361z" />
<glyph unicode="&#xe90a;" glyph-name="libre_destino" horiz-adv-x="811" d="M452.534 198.13l131.774 150.599c8.102 9.259 19.806 14.57 32.11 14.57h137.7c30.866 0 51.519-31.761 38.999-59.974-2.355-5.323-2.355-5.323-4.734-10.739-1.909-4.35-1.909-4.35-3.844-8.75-50.85-115.514-97.307-167.767-205.949-188.7l-8.072-0.771h-332.776l-8.072 0.771c-108.642 20.933-155.099 73.186-205.949 188.7-1.935 4.401-1.935 4.401-3.844 8.75-2.379 5.415-2.379 5.415-4.734 10.739-12.52 28.213 8.133 59.974 38.999 59.974h149.175c12.303 0 24.008-5.311 32.11-14.57l131.774-150.599v191.353c0 23.565 19.103 42.667 42.667 42.667 0 0 0 0 0.001 0 83.747-0.001 159.472 49.807 192.636 126.707s17.415 166.158-40.066 227.064c-16.174 17.137-15.392 44.141 1.745 60.315s44.141 15.392 60.315-1.745c80.862-85.68 103.019-211.246 56.364-319.427-40.944-94.939-127.999-160.525-228.327-175.158v-151.776zM322.325 451.209c21.416-9.83 30.808-35.16 20.978-56.576s-35.16-30.808-56.576-20.978c-148.166 68.008-213.146 243.251-145.138 391.417s243.251 213.146 391.417 145.138c21.416-9.83 30.808-35.16 20.978-56.576s-35.16-30.808-56.576-20.978c-105.334 48.348-229.917 2.152-278.266-103.181s-2.152-229.917 103.181-278.266zM170.667-64c-23.564 0-42.667 19.103-42.667 42.667s19.103 42.667 42.667 42.667h413.101c23.564 0 42.667-19.103 42.667-42.667s-19.103-42.667-42.667-42.667h-413.101zM183.956 277.966h-63.112c31.513-60.91 61.314-85.964 121.1-98.267h27.995l-85.984 98.267zM566.315 179.699c59.786 12.303 89.587 37.357 121.1 98.267h-51.637l-85.984-98.267h16.52zM387.789 493.056v31.791c-36.674 4.261-66.645 18.026-89.123 39.984l52.448 31.135c15.774-14.421 36.674-23.925 59.941-23.925 21.689 0 34.308 6.555 34.308 18.026 0 12.126-7.493 18.353-56.392 30.48-54.42 13.437-79.658 37.035-79.658 72.103 0 34.74 27.21 59.976 74.532 66.204v30.48h52.054v-30.808c30.365-4.588 57.575-16.387 76.504-35.724l-49.293-29.497c-11.436 11.471-28.393 18.353-45.744 18.353-20.112 0-30.365-6.227-30.365-16.715 0-11.799 10.647-18.681 52.843-29.497 57.18-14.748 83.207-33.757 83.207-71.447 0-37.362-31.942-63.254-83.207-69.153v-31.791h-52.054z" />
<glyph unicode="&#xe90b;" glyph-name="log-out" d="M384 106.667h-170.667c-25.6 0-42.667 17.067-42.667 42.667v597.333c0 25.6 17.067 42.667 42.667 42.667h170.667c25.6 0 42.667 17.067 42.667 42.667s-17.067 42.667-42.667 42.667h-170.667c-72.533 0-128-55.467-128-128v-597.333c0-72.533 55.467-128 128-128h170.667c25.6 0 42.667 17.067 42.667 42.667s-17.067 42.667-42.667 42.667zM934.4 430.933c4.267 8.533 4.267 21.333 0 34.133-4.267 4.267-4.267 8.533-8.533 12.8l-213.333 213.333c-17.067 17.067-42.667 17.067-59.733 0s-17.067-42.667 0-59.733l140.8-140.8h-409.6c-25.6 0-42.667-17.067-42.667-42.667s17.067-42.667 42.667-42.667h409.6l-140.8-140.8c-17.067-17.067-17.067-42.667 0-59.733 8.533-8.533 21.333-12.8 29.867-12.8s21.333 4.267 29.867 12.8l213.333 213.333c4.267 4.267 8.533 8.533 8.533 12.8z" />
<glyph unicode="&#xe90c;" glyph-name="user" d="M682.667 362.667h-341.333c-119.467 0-213.333-93.867-213.333-213.333v-85.333c0-25.6 17.067-42.667 42.667-42.667s42.667 17.067 42.667 42.667v85.333c0 72.533 55.467 128 128 128h341.333c72.533 0 128-55.467 128-128v-85.333c0-25.6 17.067-42.667 42.667-42.667s42.667 17.067 42.667 42.667v85.333c0 119.467-93.867 213.333-213.333 213.333zM512 448c119.467 0 213.333 93.867 213.333 213.333s-93.867 213.333-213.333 213.333-213.333-93.867-213.333-213.333 93.867-213.333 213.333-213.333zM512 789.333c72.533 0 128-55.467 128-128s-55.467-128-128-128-128 55.467-128 128 55.467 128 128 128z" />
<glyph unicode="&#xe90d;" glyph-name="warning" d="M981.333 213.333l-358.4 605.867c-38.4 59.733-115.2 81.067-174.933 42.667-17.067-8.533-34.133-25.6-42.667-42.667 0 0 0 0 0 0l-362.667-605.867c-17.067-29.867-21.333-64-12.8-98.133s29.867-59.733 59.733-76.8c17.067-12.8 38.4-17.067 59.733-17.067h725.333c72.533 0 128 59.733 128 128-4.267 21.333-8.533 46.933-21.333 64zM874.667 106.667h-725.333c-8.533 0-12.8 0-21.333 4.267s-17.067 12.8-21.333 25.6 0 21.333 4.267 29.867l362.667 601.6c4.267 4.267 8.533 12.8 12.8 12.8 21.333 12.8 46.933 4.267 59.733-12.8l362.667-601.6c4.267-4.267 4.267-12.8 4.267-21.333 4.267-17.067-17.067-38.4-38.4-38.4zM512 618.667c-25.6 0-42.667-17.067-42.667-42.667v-170.667c0-25.6 17.067-42.667 42.667-42.667s42.667 17.067 42.667 42.667v170.667c0 25.6-17.067 42.667-42.667 42.667zM541.867 264.533c-17.067 17.067-46.933 17.067-59.733 0-4.267-4.267-8.533-8.533-8.533-12.8s-4.267-8.533-4.267-17.067c0-12.8 4.267-21.333 12.8-29.867s17.067-12.8 29.867-12.8 21.333 4.267 29.867 12.8c4.267 4.267 8.533 8.533 8.533 12.8s4.267 8.533 4.267 17.067 0 12.8-4.267 17.067c0 4.267-4.267 8.533-8.533 12.8z" />
<glyph unicode="&#xe90e;" glyph-name="arrow-right" d="M849.067 430.933c4.267 8.533 4.267 21.333 0 34.133-4.267 4.267-4.267 8.533-8.533 12.8l-298.667 298.667c-17.067 17.067-42.667 17.067-59.733 0s-17.067-42.667 0-59.733l226.133-226.133h-494.933c-25.6 0-42.667-17.067-42.667-42.667s17.067-42.667 42.667-42.667h494.933l-226.133-226.133c-17.067-17.067-17.067-42.667 0-59.733 8.533-8.533 21.333-12.8 29.867-12.8s21.333 4.267 29.867 12.8l298.667 298.667c4.267 4.267 8.533 8.533 8.533 12.8z" />
<glyph unicode="&#xe90f;" glyph-name="arrow-left" d="M810.667 490.667h-494.933l226.133 226.133c17.067 17.067 17.067 42.667 0 59.733s-42.667 17.067-59.733 0l-298.667-298.667c-4.267-4.267-8.533-8.533-8.533-12.8-4.267-8.533-4.267-21.333 0-34.133 4.267-4.267 4.267-8.533 8.533-12.8l298.667-298.667c8.533-8.533 21.333-12.8 29.867-12.8s21.333 4.267 29.867 12.8c17.067 17.067 17.067 42.667 0 59.733l-226.133 226.133h494.933c25.6 0 42.667 17.067 42.667 42.667s-17.067 42.667-42.667 42.667z" />
<glyph unicode="&#xe910;" glyph-name="minus" d="M810.667 490.667h-597.333c-25.6 0-42.667-17.067-42.667-42.667s17.067-42.667 42.667-42.667h597.333c25.6 0 42.667 17.067 42.667 42.667s-17.067 42.667-42.667 42.667z" />
<glyph unicode="&#xe911;" glyph-name="plus" d="M810.667 490.667h-256v256c0 25.6-17.067 42.667-42.667 42.667s-42.667-17.067-42.667-42.667v-256h-256c-25.6 0-42.667-17.067-42.667-42.667s17.067-42.667 42.667-42.667h256v-256c0-25.6 17.067-42.667 42.667-42.667s42.667 17.067 42.667 42.667v256h256c25.6 0 42.667 17.067 42.667 42.667s-17.067 42.667-42.667 42.667z" />
<glyph unicode="&#xe912;" glyph-name="pocket" d="M853.333 874.667h-682.667c-72.533 0-128-55.467-128-128v-256c0-260.267 209.067-469.333 469.333-469.333s469.333 209.067 469.333 469.333v256c0 72.533-55.467 128-128 128zM896 490.667c0-213.333-170.667-384-384-384s-384 170.667-384 384v256c0 25.6 17.067 42.667 42.667 42.667h682.667c25.6 0 42.667-17.067 42.667-42.667v-256zM652.8 563.2l-140.8-140.8-140.8 140.8c-17.067 17.067-42.667 17.067-59.733 0s-17.067-42.667 0-59.733l170.667-170.667c8.533-8.533 17.067-12.8 29.867-12.8s21.333 4.267 29.867 12.8l170.667 170.667c17.067 17.067 17.067 42.667 0 59.733s-42.667 17.067-59.733 0z" />
<glyph unicode="&#xe913;" glyph-name="libranza" horiz-adv-x="1293" d="M234.819 234.739h803.301c11.981 50.98 51.755 90.25 102.102 101.319l0.891 0.164v388.689c-61.013 13.558-105.957 67.214-105.957 131.367 0 0.010 0 0.020 0 0.030v-0.002l47.751 0.216h-844.423c-0.061-74.129-60.168-134.198-134.306-134.198-0.057 0-0.114 0-0.171 0h0.009l-0.323 79.764c-0.017-0.021-0.092-0.461-0.163-0.902l-0.052-0.392-0.054-495.939 0.431-6.306v40.96c63.973 0 117.491-44.84 130.964-104.825zM1244.591 747.17l-0.216-449.644c-7.869-82.998-56.751-152.145-126.221-165.349l-9.701-0.916-977.273 0.269c-74.644 7.114-126.976 81.219-131.18 170.846v500.52c-0.014 0.457-0.023 0.994-0.023 1.532 0 2.558 0.185 5.073 0.541 7.533l-0.033-0.28c10.615 77.027 70.86 137.273 146.987 147.785l0.9 0.102 6.845 0.431h934.481c85.724 0 155.217-69.493 155.217-155.217v0-51.739c0-0.020 0-0.044 0-0.068 0-2.046-0.117-4.064-0.346-6.048l0.023 0.242zM620.867 291.005c-140.879 0-255.084 114.205-255.084 255.084s114.205 255.084 255.084 255.084v0c140.879 0 255.084-114.205 255.084-255.084s-114.205-255.084-255.084-255.084v0zM620.867 387.261c87.718 0 158.828 71.11 158.828 158.828s-71.11 158.828-158.828 158.828v0c-87.718 0-158.828-71.11-158.828-158.828s71.11-158.828 158.828-158.828v0zM1145.155 80.438c24.36 0 44.086-21.558 44.086-48.128s-19.725-48.128-44.086-48.128h-1045.72c-24.36 0-44.086 21.558-44.086 48.128s19.725 48.128 44.086 48.128h1045.72z" />
<glyph unicode="&#xe914;" glyph-name="file-text" d="M891.733 635.733c-4.267 4.267-4.267 8.533-8.533 12.8l-256 256c-4.267 4.267-8.533 8.533-12.8 8.533-4.267 4.267-12.8 4.267-17.067 4.267h-341.333c-72.533 0-128-55.467-128-128v-682.667c0-72.533 55.467-128 128-128h512c72.533 0 128 55.467 128 128v512c0 4.267 0 12.8-4.267 17.067zM640 772.267l110.933-110.933h-110.933v110.933zM768 64h-512c-25.6 0-42.667 17.067-42.667 42.667v682.667c0 25.6 17.067 42.667 42.667 42.667h298.667v-213.333c0-25.6 17.067-42.667 42.667-42.667h213.333v-469.333c0-25.6-17.067-42.667-42.667-42.667zM682.667 448h-341.333c-25.6 0-42.667-17.067-42.667-42.667s17.067-42.667 42.667-42.667h341.333c25.6 0 42.667 17.067 42.667 42.667s-17.067 42.667-42.667 42.667zM682.667 277.333h-341.333c-25.6 0-42.667-17.067-42.667-42.667s17.067-42.667 42.667-42.667h341.333c25.6 0 42.667 17.067 42.667 42.667s-17.067 42.667-42.667 42.667zM341.333 533.333h85.333c25.6 0 42.667 17.067 42.667 42.667s-17.067 42.667-42.667 42.667h-85.333c-25.6 0-42.667-17.067-42.667-42.667s17.067-42.667 42.667-42.667z" />
<glyph unicode="&#xe915;" glyph-name="award" d="M853.333 618.667c0 187.733-153.6 341.333-341.333 341.333s-341.333-153.6-341.333-341.333c0-110.933 51.2-209.067 132.267-268.8l-46.933-366.933c-4.267-17.067 4.267-34.133 17.067-42.667s29.867-8.533 46.933 0l192 115.2 192-115.2c4.267-4.267 12.8-4.267 21.333-4.267s17.067 4.267 21.333 8.533 21.333 25.6 17.067 42.667l-46.933 362.667c85.333 59.733 136.533 157.867 136.533 268.8zM256 618.667c0 140.8 115.2 256 256 256s256-115.2 256-256-115.2-256-256-256-256 115.2-256 256zM669.867 59.733l-136.533 81.067c-12.8 8.533-29.867 8.533-42.667 0l-136.533-81.067 29.867 243.2c38.4-17.067 81.067-25.6 128-25.6s89.6 8.533 128 25.6l29.867-243.2z" />
<glyph unicode="&#xe916;" glyph-name="search" d="M925.867 93.867l-157.867 157.867c51.2 64 85.333 149.333 85.333 238.933 0 213.333-170.667 384-384 384s-384-170.667-384-384 170.667-384 384-384c89.6 0 174.933 29.867 238.933 85.333l157.867-157.867c8.533-8.533 21.333-12.8 29.867-12.8s21.333 4.267 29.867 12.8c17.067 17.067 17.067 42.667 0 59.733zM170.667 490.667c0 166.4 132.267 298.667 298.667 298.667s298.667-132.267 298.667-298.667c0-81.067-34.133-157.867-85.333-209.067 0 0 0 0 0 0s0 0 0 0c-55.467-55.467-128-85.333-209.067-85.333-170.667-4.267-302.933 128-302.933 294.4z" />
<glyph unicode="&#xe917;" glyph-name="edit" d="M853.333 375.467c-25.6 0-42.667-17.067-42.667-42.667v-226.133c0-25.6-17.067-42.667-42.667-42.667h-597.333c-25.6 0-42.667 17.067-42.667 42.667v597.333c0 25.6 17.067 42.667 42.667 42.667h226.133c25.6 0 42.667 17.067 42.667 42.667s-17.067 42.667-42.667 42.667h-226.133c-72.533 0-128-55.467-128-128v-597.333c0-72.533 55.467-128 128-128h597.333c72.533 0 128 55.467 128 128v226.133c0 25.6-17.067 42.667-42.667 42.667zM968.533 733.867l-170.667 170.667c-17.067 17.067-42.667 17.067-59.733 0l-426.667-426.667c-8.533-8.533-12.8-17.067-12.8-29.867v-170.667c0-25.6 17.067-42.667 42.667-42.667h170.667c12.8 0 21.333 4.267 29.867 12.8l426.667 426.667c17.067 17.067 17.067 42.667 0 59.733zM494.933 320h-110.933v110.933l384 384 110.933-110.933-384-384z" />
<glyph unicode="&#xe918;" glyph-name="eye" d="M1019.733 465.067c-8.533 17.067-187.733 366.933-507.733 366.933s-499.2-349.867-507.733-366.933c-4.267-12.8-4.267-25.6 0-38.4 8.533-12.8 187.733-362.667 507.733-362.667s499.2 349.867 507.733 366.933c4.267 8.533 4.267 25.6 0 34.133zM512 149.333c-230.4 0-379.733 230.4-422.4 298.667 38.4 68.267 192 298.667 422.4 298.667s379.733-230.4 422.4-298.667c-42.667-68.267-192-298.667-422.4-298.667zM512 618.667c-93.867 0-170.667-76.8-170.667-170.667s76.8-170.667 170.667-170.667c93.867 0 170.667 76.8 170.667 170.667s-76.8 170.667-170.667 170.667zM512 362.667c-46.933 0-85.333 38.4-85.333 85.333s38.4 85.333 85.333 85.333c46.933 0 85.333-38.4 85.333-85.333s-38.4-85.333-85.333-85.333z" />
<glyph unicode="&#xe919;" glyph-name="eye-off" d="M430.933 738.133c25.6 4.267 55.467 8.533 81.067 8.533 230.4 0 379.733-230.4 422.4-298.667-21.333-38.4-46.933-76.8-76.8-106.667-17.067-17.067-12.8-46.933 4.267-59.733 8.533-8.533 17.067-8.533 25.6-8.533 12.8 0 25.6 4.267 34.133 17.067 38.4 42.667 68.267 93.867 98.133 145.067 8.533 12.8 8.533 25.6 0 38.4-8.533 8.533-187.733 358.4-507.733 358.4-34.133 0-68.267-4.267-98.133-12.8-25.6-4.267-38.4-25.6-34.133-51.2s29.867-34.133 51.2-29.867zM1011.2 8.533l-938.667 938.667c-17.067 17.067-42.667 17.067-59.733 0s-17.067-42.667 0-59.733l183.467-183.467c-76.8-68.267-140.8-145.067-192-234.667-8.533-12.8-8.533-25.6 0-38.4 8.533-17.067 187.733-366.933 507.733-366.933 89.6 0 174.933 25.6 247.467 76.8l192-192c8.533-8.533 21.333-12.8 29.867-12.8s21.333 4.267 29.867 12.8c17.067 17.067 17.067 42.667 0 59.733zM426.667 473.6l106.667-106.667c-29.867-8.533-59.733-4.267-85.333 17.067-21.333 21.333-29.867 55.467-21.333 89.6zM512 149.333c-230.4 0-379.733 230.4-422.4 298.667 42.667 76.8 98.133 140.8 166.4 196.267l106.667-110.933c-42.667-68.267-34.133-157.867 29.867-213.333 34.133-29.867 72.533-46.933 115.2-46.933 29.867 0 64 8.533 89.6 25.6l98.133-98.133c-55.467-34.133-119.467-51.2-183.467-51.2z" />
<glyph unicode="&#xe91a;" glyph-name="refresh" d="M887.467 358.4c-21.333 8.533-46.933-4.267-55.467-25.6-17.067-46.933-42.667-93.867-81.067-128-59.733-64-149.333-98.133-238.933-98.133 0 0 0 0 0 0-89.6 0-174.933 34.133-243.2 102.4l-119.467 110.933h149.333c25.6 0 42.667 17.067 42.667 42.667s-17.067 42.667-42.667 42.667h-256c0 0 0 0 0 0-4.267 0-8.533 0-8.533 0s-4.267 0-4.267 0c0 0-4.267-4.267-4.267-4.267-4.267 0-4.267-4.267-8.533-4.267 0 0 0 0 0 0s0-4.267-4.267-4.267c0-4.267-4.267-4.267-4.267-8.533s0-8.533 0-8.533c0 0 0-4.267 0-4.267v-256c0-25.6 17.067-42.667 42.667-42.667s42.667 17.067 42.667 42.667v157.867l123.733-119.467c72.533-89.6 179.2-132.267 294.4-132.267 0 0 0 0 0 0 115.2 0 221.867 42.667 302.933 123.733 42.667 42.667 81.067 98.133 102.4 157.867 4.267 25.6-8.533 51.2-29.867 55.467zM1024 529.067c0 0 0 4.267 0 4.267v256c0 25.6-17.067 42.667-42.667 42.667s-42.667-17.067-42.667-42.667v-157.867l-123.733 119.467c-42.667 42.667-98.133 81.067-157.867 102.4-110.933 34.133-226.133 29.867-328.533-21.333-102.4-46.933-179.2-132.267-217.6-243.2-8.533-21.333 4.267-46.933 25.6-51.2 21.333-8.533 46.933 4.267 55.467 25.6 29.867 85.333 93.867 153.6 174.933 196.267 81.067 38.4 174.933 42.667 260.267 12.8 46.933-17.067 93.867-42.667 128-81.067l119.467-115.2h-149.333c-25.6 0-42.667-17.067-42.667-42.667s17.067-42.667 42.667-42.667h256c4.267 0 12.8 0 17.067 4.267 0 0 0 0 0 0 4.267 4.267 8.533 4.267 12.8 8.533 0 0 0 0 0 0s0 4.267 4.267 4.267c0 4.267 4.267 4.267 4.267 8.533 4.267 4.267 4.267 8.533 4.267 12.8z" />
<glyph unicode="&#xe91b;" glyph-name="x-circle" d="M512 917.333c-260.267 0-469.333-209.067-469.333-469.333s209.067-469.333 469.333-469.333 469.333 209.067 469.333 469.333c0 260.267-209.067 469.333-469.333 469.333zM512 64c-213.333 0-384 170.667-384 384s170.667 384 384 384c213.333 0 384-170.667 384-384s-170.667-384-384-384zM669.867 605.867c-17.067 17.067-42.667 17.067-59.733 0l-98.133-98.133-98.133 98.133c-17.067 17.067-42.667 17.067-59.733 0s-17.067-42.667 0-59.733l98.133-98.133-98.133-98.133c-17.067-17.067-17.067-42.667 0-59.733 8.533-8.533 17.067-12.8 29.867-12.8s21.333 4.267 29.867 12.8l98.133 98.133 98.133-98.133c8.533-8.533 21.333-12.8 29.867-12.8s21.333 4.267 29.867 12.8c17.067 17.067 17.067 42.667 0 59.733l-98.133 98.133 98.133 98.133c17.067 17.067 17.067 42.667 0 59.733z" />
<glyph unicode="&#xe91c;" glyph-name="check1" d="M883.2 733.867c-17.067 17.067-42.667 17.067-59.733 0l-439.467-439.467-183.467 183.467c-17.067 17.067-42.667 17.067-59.733 0s-17.067-42.667 0-59.733l213.333-213.333c8.533-8.533 17.067-12.8 29.867-12.8s21.333 4.267 29.867 12.8l469.333 469.333c17.067 17.067 17.067 42.667 0 59.733z" />
<glyph unicode="&#xe91d;" glyph-name="icon-exclamation-circle" d="M512-21.333c260.267 0 469.333 209.067 469.333 469.333s-209.067 469.333-469.333 469.333-469.333-209.067-469.333-469.333c0-260.267 209.067-469.333 469.333-469.333zM512 832c213.333 0 384-170.667 384-384s-170.667-384-384-384c-213.333 0-384 170.667-384 384s170.667 384 384 384zM512 234.667c25.6 0 42.667 17.067 42.667 42.667v170.667c0 25.6-17.067 42.667-42.667 42.667s-42.667-17.067-42.667-42.667v-170.667c0-25.6 17.067-42.667 42.667-42.667zM541.867 588.8c8.533 8.533 12.8 17.067 12.8 29.867s-4.267 21.333-12.8 29.867c-4.267 4.267-8.533 8.533-12.8 8.533-4.267 4.267-12.8 4.267-17.067 4.267-12.8 0-21.333-4.267-29.867-12.8s-12.8-17.067-12.8-29.867c0-12.8 4.267-21.333 12.8-29.867 17.067-17.067 42.667-17.067 59.733 0z" />
<glyph unicode="&#xe91e;" glyph-name="arrow3-left" horiz-adv-x="1479" d="M54.218 374.223l413.241-413.241c33.337-33.337 87.268-33.337 120.604 0 16.725 16.725 25.031 38.571 25.031 60.302 0 21.845-8.306 43.691-25.031 60.416l-267.492 267.492h1073.038c47.218 0 85.333 38.229 85.333 85.333s-38.116 85.333-85.333 85.333h-1073.038l267.492 267.605c16.725 16.612 25.031 38.457 25.031 60.302s-8.306 43.691-25.031 60.302c-16.612 16.725-38.457 25.031-60.302 25.031s-43.691-8.306-60.302-25.031l-413.241-413.127c-16.612-16.725-25.031-38.457-25.031-60.416 0-21.845 8.42-43.691 25.031-60.302z" />
<glyph unicode="&#xe91f;" glyph-name="tc" d="M894.036 155.429h-766.025v-6.565c0-12.683 10.467-23.15 23.15-23.15h719.726c12.682 0 23.15 10.467 23.15 23.15v6.565zM73.154 163.050c-42.712 16.52-73.147 58.066-73.147 106.482v448.366c0 62.837 51.265 114.103 114.103 114.103h793.819c62.838 0 114.103-51.265 114.103-114.103v-448.366c0-48.413-30.431-89.957-73.139-106.479v-14.189c0-42.979-35.028-78.007-78.007-78.007h-719.726c-42.979 0-78.007 35.028-78.007 78.007v14.186zM306.037 612.571c2.625 0 4.791 2.165 4.791 4.791v45.275c0 2.625-2.166 4.791-4.791 4.791h-118.418c-2.644 0-4.791-2.148-4.791-4.791v-45.275c0-2.643 2.146-4.791 4.791-4.791h118.418zM306.037 557.714h-118.418c-32.951 0-59.648 26.718-59.648 59.648v45.275c0 32.93 26.697 59.648 59.648 59.648h118.418c32.922 0 59.648-26.726 59.648-59.648v-45.275c0-32.922-26.726-59.648-59.648-59.648zM155.392 301.714c-15.148 0-27.429 12.28-27.429 27.429s12.28 27.429 27.429 27.429h693.723c15.148 0 27.429-12.28 27.429-27.429s-12.28-27.429-27.429-27.429h-693.723zM155.392 448c-15.148 0-27.429 12.28-27.429 27.429s12.28 27.429 27.429 27.429h73.143c15.148 0 27.429-12.28 27.429-27.429s-12.28-27.429-27.429-27.429h-73.143zM338.249 448c-15.148 0-27.429 12.28-27.429 27.429s12.28 27.429 27.429 27.429h73.143c15.148 0 27.429-12.28 27.429-27.429s-12.28-27.429-27.429-27.429h-73.143zM521.106 448c-15.148 0-27.429 12.28-27.429 27.429s12.28 27.429 27.429 27.429h73.143c15.148 0 27.429-12.28 27.429-27.429s-12.28-27.429-27.429-27.429h-73.143zM703.963 448c-15.148 0-27.429 12.28-27.429 27.429s12.28 27.429 27.429 27.429h73.143c15.148 0 27.429-12.28 27.429-27.429s-12.28-27.429-27.429-27.429h-73.143zM907.93 210.286c32.541 0 59.246 26.705 59.246 59.246v448.366c0 32.541-26.705 59.246-59.246 59.246h-793.819c-32.541 0-59.246-26.705-59.246-59.246v-448.366c0-32.541 26.705-59.246 59.246-59.246h793.819z" />
<glyph unicode="&#xe920;" glyph-name="mobile" horiz-adv-x="585" d="M54.879 155.498h475.209v626.395h-475.209v-626.395zM54.879 100.641v-80c0-15.828 13.027-28.855 28.855-28.855h417.463c15.84 0 28.891 13.040 28.891 28.855v80h-475.209zM54.879 836.751h475.209v39.552c0 15.794-13.067 28.855-28.891 28.855h-417.463c-15.812 0-28.855-13.048-28.855-28.855v-39.552zM501.197-63.071h-417.463c-46.124 0-83.712 37.588-83.712 83.712v855.662c0 46.098 37.597 83.712 83.712 83.712h417.463c46.116 0 83.749-37.616 83.749-83.712v-855.662c0-46.123-37.623-83.712-83.749-83.712zM233.98 854.287c-7.574 0-13.714 6.14-13.714 13.714s6.14 13.714 13.714 13.714h117.979c7.574 0 13.714-6.14 13.714-13.714s-6.14-13.714-13.714-13.714h-117.979zM326.981 48.644c0-18.798-15.214-34.048-34.011-34.048-18.761 0-34.011 15.25-34.011 34.048s15.25 34.011 34.011 34.011c18.798 0 34.011-15.214 34.011-34.011z" />
<glyph unicode="&#xe921;" glyph-name="light" d="M580.133 568.858v-38.144h38.181c21.091 0 38.181 17.083 38.181 38.144 0 21.094-17.087 38.181-38.181 38.181-21.072 0-38.181-17.102-38.181-38.181zM487.461 530.714h37.815v38.144c0 51.38 41.673 93.038 93.038 93.038 51.391 0 93.038-41.647 93.038-93.038 0-51.362-41.655-93.001-93.038-93.001h-38.181v-208.969c0-15.148-12.28-27.429-27.429-27.429s-27.429 12.28-27.429 27.429v208.969h-37.815v-208.969c0-15.148-12.28-27.429-27.429-27.429s-27.429 12.28-27.429 27.429v208.969h-38.144c-51.383 0-93.038 41.639-93.038 93.001 0 51.391 41.647 93.038 93.038 93.038 51.362 0 93.001-41.655 93.001-93.038v-38.144zM394.459 530.714h38.144v38.144c0 21.091-17.083 38.181-38.144 38.181-21.094 0-38.181-17.087-38.181-38.181 0-21.061 17.090-38.144 38.181-38.144zM641.648 164.983c-0.919-14.284-12.667-25.46-26.979-25.665l-217.088-3.111c-14.552-0.206-26.733 10.988-27.754 25.505-2.488 35.389-22.107 59.937-58.706 85.69-87.121 61.258-139.835 162.421-139.835 272.33 0 185.096 150.008 335.104 335.104 335.104 185.071 0 335.104-150.020 335.104-335.104 0-111.655-52.799-214.37-140.434-272.739-37.96-25.218-57.218-47.895-59.413-82.009zM420.648 191.402l169.954 2.434c9.851 41.588 37.345 70.444 80.076 98.831 72.038 47.981 115.959 133.425 115.959 227.064 0 154.786-125.471 280.247-280.247 280.247-154.799 0-280.247-125.448-280.247-280.247 0-92.020 43.996-176.454 116.538-227.461 40.858-28.75 67.927-58.977 77.966-100.868zM420.023 44.709c-15.148 0-27.429 12.28-27.429 27.429s12.28 27.429 27.429 27.429h172.727c15.148 0 27.429-12.28 27.429-27.429s-12.28-27.429-27.429-27.429h-172.727zM420.023-49.719c-15.148 0-27.429 12.28-27.429 27.429s12.28 27.429 27.429 27.429h172.727c15.148 0 27.429-12.28 27.429-27.429s-12.28-27.429-27.429-27.429h-172.727zM933.323 813.876c13.406 7.055 29.992 1.906 37.046-11.5s1.906-29.991-11.5-37.046l-80.896-42.569c-13.406-7.055-29.992-1.906-37.046 11.5s-1.906 29.991 11.5 37.046l80.896 42.569zM800.145 950.225c9.754 11.59 27.057 13.079 38.647 3.326s13.079-27.057 3.326-38.647l-58.843-69.925c-9.754-11.59-27.057-13.079-38.647-3.326s-13.079 27.057-3.326 38.647l58.843 69.925zM985.596 630.1c15.148 0 27.429-12.28 27.429-27.429s-12.28-27.429-27.429-27.429h-91.429c-15.148 0-27.429 12.28-27.429 27.429s12.28 27.429 27.429 27.429h91.429zM54.145 765.33c-13.406 7.054-18.554 23.64-11.5 37.046s23.64 18.555 37.046 11.5l80.896-42.569c13.406-7.054 18.554-23.64 11.5-37.046s-23.64-18.555-37.046-11.5l-80.896 42.569zM170.902 914.897c-9.757 11.587-8.274 28.891 3.314 38.648s28.891 8.274 38.648-3.314l58.88-69.925c9.757-11.587 8.274-28.891-3.314-38.648s-28.891-8.274-38.648 3.314l-58.88 69.925zM27.418 575.243c-15.148 0-27.429 12.28-27.429 27.429s12.28 27.429 27.429 27.429h91.429c15.148 0 27.429-12.28 27.429-27.429s-12.28-27.429-27.429-27.429h-91.429z" />
<glyph unicode="&#xe922;" glyph-name="gas" d="M730.385-7.76c15.436 0 27.989-12.553 27.989-27.989 0-15.474-12.553-28.065-27.989-28.065h-493.378c-15.474 0-28.027 12.591-28.027 28.065 0 15.436 12.553 27.989 28.027 27.989h493.378zM825.609 487.928c-3.831 41.415 0.455 78.469 6.94 108.051-16.27-12.516-33.83-29.62-49.455-52.565-20.177-29.506-29.165-75.207-29.279-75.662-2.882-15.057-17.029-24.917-32.313-22.718-15.132 2.351-25.676 16.27-23.855 31.479 0.038 0.076 3.527 40.998-26.283 114.878-15.17 36.674-29.924 62.805-42.97 85.864-15.284 26.927-29.62 52.376-40.315 86.964-13.615 46.004-6.182 90.605 5.082 124.321-65.384-21.542-171.767-70.315-229.869-169.946-75.321-129.517-48.128-207.417-47.863-208.175 4.437-12.098 0.265-25.865-10.278-33.261s-24.69-6.978-34.588 1.289c-1.669 1.403-41.074 34.854-61.971 82.034-2.996 6.827-5.499 13.54-7.547 20.063-34.323-53.893-72.439-145.673-31.023-251.108 25.6-68.115 65.081-124.587 115.409-166.609-3.831 13.198-6.068 26.814-6.599 40.695-2.655 90.226 47.559 147.153 91.895 197.442 16.27 18.394 31.592 35.802 44.335 54.348 61.516 89.96 48.28 145.294 48.128 145.863-2.769 10.809 0.948 22.528 9.633 29.506 8.723 6.978 20.594 8.571 30.568 3.527 7.206-3.603 71.49-38.912 108.696-158.455 11.15-33.83 14.867-70.428 10.885-108.354-0.038-0.265-0.038-0.569-0.076-0.834 1.252 0.645 2.579 1.214 3.906 1.631 2.996 1.062 6.068 1.517 9.14 1.517 7.054 0 13.957-2.617 19.342-7.547 19.646-18.242 65.991-67.394 70.808-130.162 2.010-26.927-2.124-53.362-11.454-78.014 45.359 36.333 76.459 79.076 90.529 110.668 34.588 76.914 28.027 144.763 21.694 210.375l-1.252 12.895zM904.42 672.021c7.016-8.837 8.116-20.973 2.844-30.948-0.265-0.569-32.768-64.133-24.993-147.873l1.214-12.705c6.372-66.143 14.336-148.48-26.396-239.085-36.447-81.92-136.799-182.613-270.829-209.996-1.896-0.379-3.831-0.569-5.727-0.569-12.326 0-23.59 8.078-27.231 20.366-4.21 14.108 3.11 29.089 16.839 34.551 63.753 25.107 103.614 82.185 99.214 141.957-1.289 17.256-8.609 36.219-20.518 54.727-31.592-76.762-89.316-88.671-92.236-89.24-10.505-1.934-21.694 2.313-28.179 11.112-6.523 8.837-7.32 20.632-2.2 30.265 0.341 0.645 35.195 66.674 40.088 137.747 3.224 30.872 0.379 59.506-8.382 86.054-11.985 38.533-27.079 66.143-40.96 85.485-6.637-31.706-22.073-72.59-54.955-120.718-14.753-21.428-31.972-40.96-48.621-59.847-40.998-46.459-79.682-90.302-77.672-157.848 1.669-44.639 30.872-86.357 78.127-111.313 12.971-6.865 18.622-22.452 13.009-36.030-5.575-13.54-20.48-20.594-34.626-16.308-127.469 39.026-225.242 133.916-275.342 267.226-78.507 199.908 77.028 356.162 83.703 362.724 8.571 8.457 21.542 10.581 32.427 5.272 10.809-5.272 17.143-16.839 15.777-28.786-0.038-0.152-2.465-25.448 7.964-54.993 6.106 41.036 21.959 93.070 57.344 153.941 101.111 173.397 316.757 210.944 325.86 212.461 11.15 1.783 22.49-3.148 28.634-12.705 6.106-9.595 5.992-21.921-0.379-31.327-0.417-0.607-45.246-68.798-25.676-134.94 8.723-28.407 20.48-49.152 35.347-75.435 13.881-24.5 29.582-52.224 46.118-92.388 5.158-12.781 9.481-24.766 13.084-35.954 57.23 83.172 134.561 104.145 137.861 104.979 10.771 2.882 22.452-0.986 29.468-9.861z" />
<glyph unicode="&#xe923;" glyph-name="check-strong" horiz-adv-x="1270" d="M209.769 468.828c-47.988 47.988-125.791 47.988-173.779 0s-47.988-125.791 0-173.779l284.488-284.488c47.991-47.991 125.802-47.987 173.788 0.009l739.512 739.669c47.983 47.993 47.974 125.796-0.019 173.779s-125.796 47.974-173.779-0.019l-652.622-652.762-197.59 197.59z" />
<glyph unicode="&#xe924;" glyph-name="calendar" d="M512 149.333c23.564 0 42.667 19.103 42.667 42.667s-19.103 42.667-42.667 42.667c-23.564 0-42.667-19.103-42.667-42.667v0c0-23.564 19.103-42.667 42.667-42.667v0zM725.333 149.333c23.564 0 42.667 19.103 42.667 42.667s-19.103 42.667-42.667 42.667c-23.564 0-42.667-19.103-42.667-42.667v0c0-23.564 19.103-42.667 42.667-42.667v0zM725.333 320c23.564 0 42.667 19.103 42.667 42.667s-19.103 42.667-42.667 42.667c-23.564 0-42.667-19.103-42.667-42.667v0c0-23.564 19.103-42.667 42.667-42.667v0zM512 320c23.564 0 42.667 19.103 42.667 42.667s-19.103 42.667-42.667 42.667c-23.564 0-42.667-19.103-42.667-42.667v0c0-23.564 19.103-42.667 42.667-42.667v0zM810.667 832h-42.667v42.667c0 23.564-19.103 42.667-42.667 42.667s-42.667-19.103-42.667-42.667v0-42.667h-341.333v42.667c0 23.564-19.103 42.667-42.667 42.667s-42.667-19.103-42.667-42.667v0-42.667h-42.667c-70.692 0-128-57.308-128-128v0-597.333c0-70.692 57.308-128 128-128v0h597.333c70.692 0 128 57.308 128 128v0 597.333c0 70.692-57.308 128-128 128v0zM853.333 106.667c0-23.564-19.103-42.667-42.667-42.667v0h-597.333c-23.564 0-42.667 19.103-42.667 42.667v0 384h682.667zM853.333 576h-682.667v128c0 23.564 19.103 42.667 42.667 42.667v0h42.667v-42.667c0-23.564 19.103-42.667 42.667-42.667s42.667 19.103 42.667 42.667v0 42.667h341.333v-42.667c0-23.564 19.103-42.667 42.667-42.667s42.667 19.103 42.667 42.667v0 42.667h42.667c23.564 0 42.667-19.103 42.667-42.667v0zM298.667 320c23.564 0 42.667 19.103 42.667 42.667s-19.103 42.667-42.667 42.667c-23.564 0-42.667-19.103-42.667-42.667v0c0-23.564 19.103-42.667 42.667-42.667v0zM298.667 149.333c23.564 0 42.667 19.103 42.667 42.667s-19.103 42.667-42.667 42.667c-23.564 0-42.667-19.103-42.667-42.667v0c0-23.564 19.103-42.667 42.667-42.667v0z" />
<glyph unicode="&#xe925;" glyph-name="ETB" d="M915.258 390.013c56.978-15.145 98.963-67.075 98.963-128.802 0-73.656-59.67-133.339-133.303-133.339h-747.593c-73.637 0-133.339 59.688-133.339 133.339 0 66.377 48.58 121.431 112.128 131.588-15.449 91.363 43.793 179.504 135.25 198.996 27.993 5.983 56.426 4.687 83.424-3.173 47.851 112.661 159.046 188.538 284.951 188.538 170.985 0 309.577-138.604 309.577-309.614 0-26.294-3.426-52.243-10.058-77.534zM959.364 261.211c0 42.825-34.359 77.642-77.031 78.397-0.743-0.082-1.273-0.1-3.28-0.17-19.218 0-32.477 19.252-25.626 37.207 11.199 29.35 17.032 59.869 17.032 90.903 0 140.714-114.032 254.757-254.72 254.757-111.703 0-209.356-72.609-242.737-177.464-5.060-15.894-23.016-23.63-38.043-16.389-24.13 11.628-50.452 15.187-76.145 9.696-64.3-13.704-105.342-76.968-91.659-141.198 1.421-6.567 3.641-13.337 6.789-20.919 8.194-19.737-8.331-40.849-29.458-37.633l-2.083 0.315c-4.399 0.656-6.881 0.909-9.077 0.909-43.335 0-78.482-35.122-78.482-78.409 0-43.352 35.139-78.482 78.482-78.482h747.593c43.334 0 78.446 35.121 78.446 78.482zM682.92 589.692c-15.148 0-27.429 12.28-27.429 27.429s12.28 27.429 27.429 27.429c65.142 0 117.943-52.801 117.943-117.943 0-15.148-12.28-27.429-27.429-27.429s-27.429 12.28-27.429 27.429c0 34.845-28.241 63.086-63.086 63.086z" />
<glyph unicode="&#xe926;" glyph-name="water" d="M592.495 910.801l0.59-1.035c4.89-9.017 8.1-14.951 12.071-22.35 5.96-11.103 11.87-22.232 17.933-33.809 15.94-30.434 31.255-60.732 45.657-90.666 8.798-18.287 17.063-36.047 24.72-53.184 36.652-82.029 57.371-144.43 57.371-184.475 0-116.842-96.31-213.138-213.138-213.138-116.834 0-213.175 96.302-213.175 213.138 0 40.046 20.724 102.447 57.387 184.478 7.658 17.134 15.924 34.892 24.723 53.176 14.404 29.933 29.722 60.229 45.67 90.67 6.064 11.575 11.973 22.702 17.937 33.81 3.963 7.382 7.183 13.334 12.662 23.384 11.122 18.56 32.035 30.884 54.796 30.884 22.789 0 43.668-12.315 54.796-30.884zM556.823 861.471c-3.816 7.109-6.914 12.838-11.575 21.434-1.484 2.192-4.55 3.923-7.549 3.923-3.115 0-6.353-1.908-7.151-3.19-4.886-9.009-8.060-14.877-11.976-22.17-5.881-10.953-11.704-21.918-17.676-33.318-15.676-29.924-30.72-59.678-44.831-89.001-8.584-17.838-16.634-35.132-24.071-51.772-33.449-74.84-52.612-132.541-52.612-162.094 0-86.535 71.776-158.281 158.318-158.281 86.534 0 158.281 71.738 158.281 158.281 0 29.554-19.159 87.257-52.599 162.097-7.436 16.643-15.486 33.939-24.069 51.78-14.108 29.324-29.149 59.079-44.818 88.996-5.972 11.402-11.795 22.369-17.671 33.315zM27.432 48.951c-15.148 0-27.429 12.28-27.429 27.429s12.28 27.429 27.429 27.429c41.954 0 64.151-12.108 98.908-43.704 25.586-23.261 36.913-29.439 62.007-29.439 25.113 0 36.451 6.182 62.055 29.453 34.751 31.585 56.951 43.69 98.896 43.69 41.933 0 64.127-12.107 98.864-43.694l0.014-0.012c25.576-23.256 36.906-29.436 62-29.436 25.131 0 36.474 6.182 62.089 29.447 34.783 31.592 56.994 43.696 98.972 43.696 42.002 0 64.226-12.1 99.036-43.688 25.643-23.27 37.004-29.455 62.171-29.455 25.145 0 36.5 6.183 62.137 29.453 34.799 31.586 57.030 43.69 99.033 43.69 15.148 0 27.429-12.28 27.429-27.429s-12.28-27.429-27.429-27.429c-25.168 0-36.532-6.188-62.178-29.465-34.79-31.577-57.011-43.678-98.992-43.678-42.002 0-64.226 12.1-99.036 43.688-25.643 23.27-37.004 29.455-62.171 29.455-25.131 0-36.474-6.182-62.089-29.447-34.783-31.592-56.994-43.696-98.972-43.696-41.955 0-64.159 12.112-98.919 43.719-25.567 23.248-36.888 29.424-61.959 29.424-25.089 0-36.419-6.178-62-29.428l-0.014-0.012c-34.76-31.593-56.97-43.702-98.937-43.702-41.954 0-64.151 12.108-98.908 43.704-25.586 23.261-36.913 29.439-62.007 29.439zM27.432 200.309c-15.148 0-27.429 12.28-27.429 27.429s12.28 27.429 27.429 27.429c41.954 0 64.151-12.108 98.908-43.704 25.586-23.261 36.913-29.439 62.007-29.439 25.113 0 36.451 6.182 62.055 29.453 34.751 31.585 56.951 43.69 98.896 43.69 41.933 0 64.127-12.107 98.864-43.694l0.014-0.012c25.576-23.256 36.906-29.436 62-29.436 25.131 0 36.474 6.182 62.089 29.447 34.783 31.592 56.994 43.696 98.972 43.696 42.002 0 64.226-12.1 99.036-43.688 25.643-23.27 37.004-29.455 62.171-29.455 25.145 0 36.5 6.183 62.137 29.453 34.799 31.586 57.030 43.69 99.033 43.69 15.148 0 27.429-12.28 27.429-27.429s-12.28-27.429-27.429-27.429c-25.168 0-36.532-6.188-62.178-29.465-34.79-31.577-57.011-43.678-98.992-43.678-42.002 0-64.226 12.1-99.036 43.688-25.643 23.27-37.004 29.455-62.171 29.455-25.131 0-36.474-6.182-62.089-29.447-34.783-31.592-56.994-43.696-98.972-43.696-41.955 0-64.159 12.112-98.919 43.719-25.567 23.248-36.888 29.424-61.959 29.424-25.089 0-36.419-6.178-62-29.428l-0.014-0.012c-34.76-31.593-56.97-43.702-98.937-43.702-41.954 0-64.151 12.108-98.908 43.704-25.586 23.261-36.913 29.439-62.007 29.439zM598.861 534.81c0 15.148 12.28 27.429 27.429 27.429s27.429-12.28 27.429-27.429c0-65.152-52.776-117.943-117.943-117.943-15.148 0-27.429 12.28-27.429 27.429s12.28 27.429 27.429 27.429c34.867 0 63.086 28.227 63.086 63.086z" />
<glyph unicode="&#xe927;" glyph-name="arrow3-right" horiz-adv-x="1479" d="M1424.782 521.777l-413.241 413.241c-33.337 33.337-87.268 33.337-120.604 0-16.725-16.725-25.031-38.571-25.031-60.302 0-21.845 8.306-43.691 25.031-60.416l267.492-267.492h-1073.038c-47.218 0-85.333-38.229-85.333-85.333s38.116-85.333 85.333-85.333h1073.038l-267.492-267.605c-16.725-16.612-25.031-38.457-25.031-60.302s8.306-43.691 25.031-60.302c16.612-16.725 38.457-25.031 60.302-25.031s43.691 8.306 60.302 25.031l413.241 413.127c16.612 16.725 25.031 38.457 25.031 60.416 0 21.845-8.42 43.691-25.031 60.302z" />
<glyph unicode="&#xe928;" glyph-name="x-close" d="M512 538.51l381.412 381.412c24.994 24.994 65.516 24.994 90.51 0s24.994-65.516 0-90.51l-381.412-381.412 381.412-381.412c24.994-24.994 24.994-65.516 0-90.51s-65.516-24.994-90.51 0l-381.412 381.412-381.412-381.412c-24.994-24.994-65.516-24.994-90.51 0s-24.994 65.516 0 90.51l381.412 381.412-381.412 381.412c-24.994 24.994-24.994 65.516 0 90.51s65.516 24.994 90.51 0l381.412-381.412z" />
<glyph unicode="&#xe929;" glyph-name="x-circle-2" d="M512-34.462c266.456 0 482.462 216.005 482.462 482.462s-216.005 482.462-482.462 482.462c-266.456 0-482.462-216.005-482.462-482.462s216.005-482.462 482.462-482.462zM512 24.615c-233.829 0-423.385 189.556-423.385 423.385s189.556 423.385 423.385 423.385c233.829 0 423.385-189.556 423.385-423.385s-189.556-423.385-423.385-423.385zM294.19 624.036l393.846-393.846c11.535-11.535 30.238-11.535 41.774 0s11.535 30.238 0 41.774l-393.846 393.846c-11.535 11.535-30.238 11.535-41.774 0s-11.535-30.238 0-41.774zM688.036 665.81l-393.846-393.846c-11.535-11.535-11.535-30.238 0-41.774s30.238-11.535 41.774 0l393.846 393.846c11.535 11.535 11.535 30.238 0 41.774s-30.238 11.535-41.774 0z" />
<glyph unicode="&#xe92a;" glyph-name="filter" d="M891.259 926.777c54.983 0 99.556-44.573 99.556-99.556v-758.519c0-54.983-44.573-99.556-99.556-99.556h-758.519c-54.983 0-99.556 44.573-99.556 99.556v758.519c0 52.234 40.227 95.072 91.39 99.226l8.165 0.33h758.519zM891.259 841.444l-761.78-0.376c-6.283-1.474-10.961-7.114-10.961-13.847v-758.519c0-7.855 6.368-14.222 14.222-14.222h758.519c7.855 0 14.222 6.368 14.222 14.222v758.519c0 7.855-6.368 14.222-14.222 14.222zM587.852 433.74c50.401 0 93.454-31.461 110.592-75.815l136.733-0.037c23.564-0.006 42.662-19.113 42.656-42.677-0.005-21.6-16.061-39.448-36.888-42.268l-5.79-0.388-136.69 0.020c-17.123-44.385-60.192-75.872-110.614-75.872s-93.491 31.488-110.614 75.872l-286.806-0.020c-23.564-0.003-42.672 19.097-42.672 42.661s19.097 42.669 42.661 42.672v0l286.839 0.037c17.138 44.354 60.191 75.815 110.592 75.815zM587.852 348.407c-18.328 0-33.185-14.858-33.185-33.185s14.858-33.185 33.185-33.185c18.328 0 33.185 14.858 33.185 33.185s-14.858 33.185-33.185 33.185zM398.222 699.221c50.379 0 93.417-31.433 110.57-75.758l326.379-0.094c23.564-0.003 42.662-19.107 42.662-42.671 0-21.6-16.055-39.45-36.882-42.273l-5.79-0.389-326.326 0.020c-17.123-44.385-60.192-75.872-110.614-75.872s-93.491 31.488-110.614 75.872l-97.168-0.020c-23.564-0.008-42.673 19.088-42.681 42.652-0.007 21.6 16.038 39.457 36.863 42.29l5.789 0.391 97.241 0.094c17.153 44.324 60.191 75.758 110.57 75.758zM398.222 613.888c-18.328 0-33.185-14.858-33.185-33.185s14.858-33.185 33.185-33.185c18.328 0 33.185 14.858 33.185 33.185s-14.858 33.185-33.185 33.185z" />
<glyph unicode="&#xe92b;" glyph-name="download" d="M42.827 352.507c-45.443 223.006 72.369 447.185 281.81 536.241 21.685 9.221 46.739-0.884 55.96-22.569s-0.884-46.739-22.569-55.96c-172.115-73.185-268.931-257.411-231.587-440.673s198.529-314.914 385.558-314.914c187.029 0 348.213 131.652 385.558 314.914s-59.472 367.488-231.587 440.673c-21.685 9.221-31.79 34.275-22.569 55.96s34.275 31.79 55.96 22.569c209.441-89.057 327.254-313.235 281.81-536.241s-241.584-383.208-469.173-383.208c-227.589 0-423.729 160.202-469.173 383.208zM330.126 459.207c15.148 15.148 38.851 16.525 55.554 4.131l4.785-4.131 78.829-78.905 0.038 503.846c0 21.6 16.051 39.452 36.877 42.277l5.79 0.389c21.6 0 39.452-16.051 42.277-36.877l0.389-5.79-0.038-503.846 78.905 78.905c15.148 15.148 38.851 16.525 55.554 4.131l4.785-4.131c15.148-15.148 16.525-38.851 4.131-55.554l-4.131-4.785-151.704-151.704-4.098-3.607c-0.128-0.099-0.256-0.197-0.385-0.294l-1.582-1.144c-1.020-0.696-2.082-1.358-3.173-1.973-0.792-0.45-1.608-0.876-2.434-1.273-1.005-0.483-2.052-0.938-3.121-1.351-0.596-0.228-1.163-0.433-1.734-0.625-1.298-0.441-2.651-0.825-4.029-1.143l-1.691-0.35-3.912-0.551-1.423-0.111-1.615-0.065h-1.953c-1.12 0.026-2.246 0.095-3.367 0.21-1.185 0.118-2.368 0.288-3.534 0.506l-0.902 0.182-0.909 0.201c-1.376 0.316-2.708 0.697-4.011 1.139-0.502 0.172-1.013 0.355-1.522 0.549-1.109 0.423-2.197 0.892-3.26 1.403l-2.637 1.381c-0.832 0.48-1.622 0.966-2.393 1.476l-2.854 2.006-3.802 3.433-151.704 151.704c-16.662 16.662-16.662 43.677 0 60.34zM481.83 247.163l3.233-2.923 1.244-0.974c-1.582 1.195-3.078 2.498-4.478 3.897z" />
<glyph unicode="&#xe92c;" glyph-name="Icon-arrow-back" d="M512 949.419c276.879 0 501.333-224.455 501.333-501.333s-224.455-501.333-501.333-501.333c-276.879 0-501.333 224.455-501.333 501.333s224.455 501.333 501.333 501.333zM512 885.419c-241.533 0-437.333-195.801-437.333-437.333s195.801-437.333 437.333-437.333c241.533 0 437.333 195.801 437.333 437.333s-195.801 437.333-437.333 437.333zM768 480.085h-554.667c-17.673 0-32-14.327-32-32s14.327-32 32-32h554.667c17.673 0 32 14.327 32 32s-14.327 32-32 32zM258.588 448.085l169.373 169.373c12.497 12.497 12.497 32.758 0 45.255s-32.758 12.497-45.255 0l-192-192c-12.497-12.497-12.497-32.758 0-45.255l192-192c12.497-12.497 32.758-12.497 45.255 0s12.497 32.758 0 45.255l-169.373 169.373z" />
<glyph unicode="&#xe92d;" glyph-name="transfers" horiz-adv-x="906" d="M79.379 687.685h279.861c16.314 0 29.538 13.225 29.538 29.538s-13.225 29.538-29.538 29.538h-279.861c-16.314 0-29.538-13.225-29.538-29.538s13.225-29.538 29.538-29.538zM130.457 810.075l-71.947-71.947c-11.535-11.535-11.535-30.238 0-41.774s30.238-11.535 41.774 0l71.947 71.947c11.535 11.535 11.535 30.238 0 41.774s-30.238 11.535-41.774 0zM172.23 666.149l-71.947 71.947c-11.535 11.535-30.238 11.535-41.774 0s-11.535-30.238 0-41.774l71.947-71.947c11.535-11.535 30.238-11.535 41.774 0s11.535 30.238 0 41.774zM842.693 182.623h-279.861c-16.314 0-29.538-13.225-29.538-29.538s13.225-29.538 29.538-29.538h279.861c16.314 0 29.538 13.225 29.538 29.538s-13.225 29.538-29.538 29.538zM791.615 60.233l71.947 71.947c11.535 11.535 11.535 30.238 0 41.774s-30.238 11.535-41.774 0l-71.947-71.947c-11.535-11.535-11.535-30.238 0-41.774s30.238-11.535 41.774 0zM749.841 204.162l71.947-71.947c11.535-11.535 30.238-11.535 41.774 0s11.535 30.238 0 41.774l-71.947 71.947c-11.535 11.535-30.238 11.535-41.774 0s-11.535-30.238 0-41.774zM690.284 733.19c-44.652 31.946-86.226 38.811-118.264 19.846-27.283-16.15-41.303-49.039-36.246-77.842 6.53-37.054 37.894-54.658 75.548-61.422l7.129-1.143c28.528-4.079 32.926-12.457 26.275-21.33-11.43-15.248-40.743-16.733-76.654 9.913-13.101 9.721-31.602 6.98-41.323-6.121s-6.98-31.602 6.121-41.323c60.254-44.707 126.559-41.349 159.126 2.096 34.292 45.746 7.041 101.351-58.319 114.089l-6.896 1.163c-17.217 2.442-32.031 9.818-32.823 14.313-0.912 5.197 2.625 13.497 8.156 16.771 9.096 5.385 26.433 2.522 53.795-17.055 13.268-9.492 31.718-6.432 41.211 6.836s6.432 31.718-6.836 41.211zM584.161 766.187l-0.073-29.375c-0.040-16.314 13.152-29.571 29.465-29.612s29.571 13.152 29.612 29.465l0.073 29.375c0.040 16.314-13.152 29.571-29.465 29.612s-29.571-13.152-29.611-29.465zM584.052 552.217l0.036-39.845c0.015-16.314 13.252-29.526 29.565-29.512s29.526 13.252 29.512 29.565l-0.036 39.845c-0.015 16.314-13.252 29.526-29.565 29.512s-29.526-13.252-29.512-29.565zM396.077 340.024c-44.652 31.967-86.236 38.845-118.282 19.88-27.301-16.157-41.319-49.074-36.23-77.899 6.523-37.011 37.683-54.506 75.412-61.363l7.147-1.163c28.608-4.091 33.011-12.472 26.366-21.337-11.423-15.24-40.738-16.717-76.666 9.944-13.101 9.721-31.602 6.982-41.323-6.119s-6.982-31.602 6.119-41.323c60.268-44.722 126.576-41.381 159.142 2.064 34.288 45.743 7.025 101.347-58.333 114.084l-6.896 1.163c-17.254 2.494-31.997 9.832-32.787 14.313-0.923 5.227 2.61 13.524 8.14 16.796 9.097 5.384 26.441 2.515 53.804-17.075 13.265-9.496 31.716-6.442 41.213 6.823s6.442 31.716-6.823 41.213zM289.947 373.062l-0.073-29.375c-0.040-16.314 13.152-29.571 29.465-29.612s29.571 13.152 29.612 29.465l0.073 29.375c0.040 16.314-13.152 29.571-29.465 29.612s-29.571-13.152-29.611-29.465zM289.805 159.065l0.073-39.845c0.030-16.314 13.279-29.514 29.592-29.485s29.514 13.279 29.485 29.592l-0.073 39.845c-0.030 16.314-13.279 29.514-29.592 29.485s-29.514-13.279-29.485-29.592zM613.7 922.891c156.826 0 283.987-127.161 283.987-283.987s-127.161-283.987-283.987-283.987c-156.826 0-283.987 127.161-283.987 283.987s127.161 283.987 283.987 283.987zM613.7 863.814c-124.199 0-224.91-100.712-224.91-224.91s100.712-224.91 224.91-224.91c124.199 0 224.91 100.712 224.91 224.91s-100.712 224.91-224.91 224.91zM543.209 280.031c1.855-11.512 2.787-23.356 2.787-35.474 0-124.235-100.675-224.91-224.91-224.91-124.204 0-224.874 100.68-224.874 224.91 0 115.415 87.304 211.747 201.188 223.653 16.225 1.696 28.003 16.225 26.307 32.45s-16.225 28.003-32.45 26.307c-143.894-15.043-254.122-136.669-254.122-282.409 0-156.856 127.119-283.987 283.951-283.987 156.862 0 283.987 127.125 283.987 283.987 0 15.239-1.179 30.225-3.539 44.871-2.595 16.106-17.755 27.059-33.861 24.464s-27.059-17.755-24.464-33.861z" />
<glyph unicode="&#xe92e;" glyph-name="trash" horiz-adv-x="910" d="M360.296 163.556c26.182 0 47.407 21.225 47.407 47.407v284.444c0 26.182-21.225 47.407-47.407 47.407s-47.407-21.225-47.407-47.407v-284.444c0-26.182 21.225-47.407 47.407-47.407zM834.37 732.444h-189.63v47.407c0 78.547-63.675 142.222-142.222 142.222h-94.815c-78.547 0-142.222-63.675-142.222-142.222v-47.407h-189.63c-26.182 0-47.407-21.225-47.407-47.407s21.225-47.407 47.407-47.407h47.407v-521.481c0-78.547 63.675-142.222 142.222-142.222h379.259c78.547 0 142.222 63.675 142.222 142.222v521.481h47.407c26.182 0 47.407 21.225 47.407 47.407s-21.225 47.407-47.407 47.407zM360.296 779.852c0 26.182 21.225 47.407 47.407 47.407h94.815c26.182 0 47.407-21.225 47.407-47.407v-47.407h-189.63v47.407zM692.148 116.148c0-26.182-21.225-47.407-47.407-47.407h-379.259c-26.182 0-47.407 21.225-47.407 47.407v521.481h474.074v-521.481zM549.926 163.556c26.182 0 47.407 21.225 47.407 47.407v284.444c0 26.182-21.225 47.407-47.407 47.407s-47.407-21.225-47.407-47.407v-284.444c0-26.182 21.225-47.407 47.407-47.407z" />
<glyph unicode="&#xe92f;" glyph-name="info" d="M511.573-53.333h14.635c269.506 4.103 486.482 223.22 487.125 493.165v0.062c0.683 278.229-222.592 505.344-500.864 509.44-2.209 0.036-4.815 0.056-7.426 0.056-272.592 0-493.656-220.619-494.377-493.043v-0.069c-0.768-278.357 222.507-505.6 500.907-509.611zM512.469 10.667l-12.117 0.341c-237.653 9.813-426.368 205.824-425.685 445.099 0.627 237.217 193.073 429.276 430.377 429.276 2.296 0 4.587-0.018 6.875-0.054l-0.345 0.004c243.2-3.541 438.357-202.027 437.76-445.312-0.58-237.277-193.063-429.403-430.42-429.403-2.266 0-4.527 0.018-6.785 0.052l0.341-0.004zM544 490.88v-256c0-17.673-14.327-32-32-32s-32 14.327-32 32v0 256c0 17.673 14.327 32 32 32s32-14.327 32-32v0zM516.608 587.264l-5.504-0.384c-23.148 0.388-41.764 19.244-41.764 42.448 0 0.617 0.013 1.231 0.039 1.842l-0.003-0.087c0.811 22.827 19.627 41.045 42.667 41.131 23.427-0.056 42.397-19.061 42.397-42.496 0-0.555-0.011-1.108-0.032-1.658l0.002 0.079c-0.683-20.736-16.256-37.845-36.523-40.789l-6.4-0.469c-17.544 0.169-31.702 14.43-31.702 31.999 0 16.138 11.947 29.486 27.479 31.683l0.17 0.020 4.565 0.299c-0.044 0-0.095 0.001-0.147 0.001-11.538 0-20.949-9.105-21.441-20.521l-0.002-0.044c-0.007-0.204-0.011-0.444-0.011-0.685 0-11.713 9.402-21.23 21.071-21.416h0.017c0.091-0.001 0.199-0.002 0.307-0.002 11.782 0 21.333 9.551 21.333 21.333 0 10.443-7.503 19.133-17.413 20.974l-0.132 0.020-3.456 0.341c17.482-0.25 31.557-14.48 31.557-31.997 0-15.935-11.648-29.15-26.894-31.595l-0.183-0.024z" />
<glyph unicode="&#xe930;" glyph-name="security-circle" horiz-adv-x="788" d="M393.846 397.588c59.817 0 108.308-48.491 108.308-108.308s-48.491-108.308-108.308-108.308c-59.817 0-108.308 48.491-108.308 108.308s48.491 108.308 108.308 108.308zM393.846 338.511c-27.189 0-49.231-22.041-49.231-49.231s22.041-49.231 49.231-49.231c27.189 0 49.231 22.041 49.231 49.231s-22.041 49.231-49.231 49.231zM216.615 574.818h354.462c103.32 0 187.077-83.757 187.077-187.077v-236.308c0-103.32-83.757-187.077-187.077-187.077h-354.462c-103.32 0-187.077 83.757-187.077 187.077v236.308c0 103.32 83.757 187.077 187.077 187.077zM216.615 515.742c-70.692 0-128-57.308-128-128v-236.308c0-70.692 57.308-128 128-128h354.462c70.692 0 128 57.308 128 128v236.308c0 70.692-57.308 128-128 128h-354.462zM206.769 540.318v142.809c0 103.32 83.757 187.077 187.077 187.077s187.077-83.757 187.077-187.077v-142.809c0-16.314 13.225-29.538 29.538-29.538s29.538 13.225 29.538 29.538v142.809c0 135.947-110.207 246.154-246.154 246.154s-246.154-110.207-246.154-246.154v-142.809c0-16.314 13.225-29.538 29.538-29.538s29.538 13.225 29.538 29.538z" />
<glyph unicode="&#xe931;" glyph-name="user-circle" d="M512 930.462c-266.456 0-482.462-216.005-482.462-482.462s216.005-482.462 482.462-482.462c266.456 0 482.462 216.005 482.462 482.462s-216.005 482.462-482.462 482.462zM512 871.385c233.829 0 423.385-189.556 423.385-423.385s-189.556-423.385-423.385-423.385c-233.829 0-423.385 189.556-423.385 423.385s189.556 423.385 423.385 423.385zM520.804 711.991c47.937-1.247 93.551-21.631 126.5-56.836 35.146-37.553 52.514-88.367 47.834-136.814 0-99.292-21.493-153.429-70.697-207.577-12.275-13.502-7.981-62.779-0.37-65.644 76.578-23.213 150.214-55.208 219.437-95.348 14.113-8.183 18.92-26.258 10.736-40.37s-26.258-18.92-40.37-10.736c-65.281 37.853-134.723 68.027-208.602 90.476-53.553 19.77-62.273 119.861-24.549 161.358 39.446 43.409 55.338 83.438 55.467 170.604 3.228 34.371-8.429 68.478-32.019 93.683-21.775 23.266-51.791 36.888-84.699 38.101l-8.284 0.043c-34.509 0.948-67.77-12.939-91.36-38.144s-35.247-59.312-31.89-96.445c0-84.303 15.944-124.49 55.334-167.837 37.729-41.501 29.008-141.592-26.206-161.92-72.217-21.891-141.659-52.064-206.941-89.918-14.113-8.183-32.187-3.376-40.37 10.736s-3.376 32.187 10.736 40.37c69.224 40.139 142.859 72.135 217.776 94.79 9.273 3.423 13.566 52.7 1.287 66.207-49.152 54.090-70.693 108.386-70.564 204.81-4.809 51.209 12.558 102.023 47.705 139.576 32.95 35.205 78.563 55.59 125.163 56.836h18.945z" />
<glyph unicode="&#xe932;" glyph-name="icon-accions-aval" horiz-adv-x="1210" d="M1000.727 762.089h-791.273c-96.399 0-174.545-78.147-174.545-174.545v0-465.455c0-96.399 78.147-174.545 174.545-174.545v0h791.273c96.399 0 174.545 78.147 174.545 174.545v0 465.455c0 96.399-78.147 174.545-174.545 174.545v0zM209.455 692.271h791.273c57.839 0 104.727-46.888 104.727-104.727v0-465.455c0-57.839-46.888-104.727-104.727-104.727v0h-791.273c-57.839 0-104.727 46.888-104.727 104.727v0 465.455c0 57.839 46.888 104.727 104.727 104.727v0zM535.273 948.364h139.729c67.864-0.192 123.321-53.053 127.654-119.847l0.020-0.379 0.233-7.773v-93.091c-0.006-19.275-15.633-34.898-34.909-34.898-17.602 0-32.161 13.027-34.562 29.965l-0.022 0.185-0.326 4.748v92.998c-0.097 30.029-22.82 54.721-52.009 57.926l-0.262 0.023-5.911 0.326h-139.543c-30.023-0.072-54.72-22.784-57.926-51.962l-0.023-0.262-0.326-5.958v-93.091c-0.006-19.275-15.633-34.898-34.909-34.898-17.602 0-32.161 13.027-34.562 29.965l-0.022 0.185-0.326 4.748v93.184c0.168 67.873 53.042 123.343 119.849 127.655l0.378 0.020 7.773 0.233zM605.091 575.907c17.605-0.001 32.165-13.033 34.562-29.976l0.021-0.185 0.326-4.748v-46.545c-0.006-19.275-15.633-34.898-34.909-34.898-17.602 0-32.161 13.027-34.562 29.965l-0.022 0.185-0.326 4.748v46.545c0 19.28 15.629 34.909 34.909 34.909v0zM674.909 529.455c19.275-0.006 34.898-15.633 34.898-34.909 0-17.602-13.027-32.161-29.965-34.562l-0.185-0.022-4.748-0.326h-94.58c-0.028 0-0.061 0-0.095 0-15.218 0-27.555-12.337-27.555-27.555 0-9.994 5.321-18.746 13.284-23.576l0.123-0.069 3.863-1.862 96.116-38.447c36.18-14.753 61.216-49.658 61.216-90.411 0-51.094-39.353-92.997-89.402-97.052l-0.346-0.023-7.727-0.279h-94.534c-19.275 0.006-34.898 15.633-34.898 34.909 0 17.602 13.027 32.161 29.965 34.562l0.185 0.022 4.748 0.326h94.58c0 0 0.001 0 0.001 0 15.218 0 27.555 12.337 27.555 27.555 0 9.994-5.321 18.745-13.284 23.576l-0.122 0.069-3.863 1.955-96.163 38.4c-36.072 14.802-61.014 49.654-61.014 90.33 0 51.039 39.269 92.907 89.242 97.038l0.351 0.023 7.727 0.326h94.627zM605.091 250.089c17.605-0.001 32.165-13.033 34.562-29.976l0.021-0.185 0.326-4.748v-46.545c-0.006-19.275-15.633-34.898-34.909-34.898-17.602 0-32.161 13.027-34.562 29.965l-0.022 0.185-0.326 4.748v46.545c0 19.28 15.629 34.909 34.909 34.909v0z" />
<glyph unicode="&#xe933;" glyph-name="icon-advance" horiz-adv-x="945" d="M295.385 109.292l4.45-0.276c17.568-2.287 30.996-17.158 30.996-35.166 0-19.576-15.87-35.446-35.446-35.446s-35.446 15.87-35.446 35.446c0 18.007 13.428 32.879 30.817 35.147l0.179 0.019 4.45 0.276zM551.542 178.215c0.010 0 0.022 0 0.034 0 14.138 0 25.6-11.462 25.6-25.6 0-12.816-9.418-23.433-21.711-25.307l-0.142-0.018-3.781-0.276h-512c-0.010 0-0.022 0-0.034 0-14.138 0-25.6 11.462-25.6 25.6 0 12.816 9.418 23.433 21.711 25.307l0.142 0.018 3.781 0.276h512zM551.542 768.985c0.010 0 0.022 0 0.034 0 14.138 0 25.6-11.462 25.6-25.6 0-12.816-9.418-23.433-21.711-25.307l-0.142-0.018-3.781-0.276h-512c-0.010 0-0.022 0-0.034 0-14.138 0-25.6 11.462-25.6 25.6 0 12.816 9.418 23.433 21.711 25.307l0.142 0.018 3.781 0.276h512zM374.311 847.754c0.010 0 0.022 0 0.034 0 14.138 0 25.6-11.462 25.6-25.6 0-12.816-9.418-23.433-21.711-25.307l-0.142-0.018-3.781-0.276h-137.846c-0.010 0-0.022 0-0.034 0-14.138 0-25.6 11.462-25.6 25.6 0 12.816 9.418 23.433 21.711 25.307l0.142 0.018 3.781 0.276h137.846zM866.462 690.215c0.001 0 0.003 0 0.005 0 33.921 0 61.772-25.99 64.726-59.143l0.018-0.249 0.236-5.593v-315.077c0-0.001 0-0.003 0-0.005 0-33.921-25.99-61.772-59.143-64.726l-0.249-0.018-5.593-0.236h-433.231c-0.010 0-0.022 0-0.034 0-14.138 0-25.6 11.462-25.6 25.6 0 12.816 9.418 23.433 21.711 25.307l0.142 0.018 3.781 0.276h433.231c6.695 0 12.209 4.726 13.509 11.028l0.276 2.757v315.077c0 0.001 0 0.002 0 0.003 0 6.637-4.691 12.179-10.938 13.49l-0.090 0.016-2.757 0.276h-433.231c-0.010 0-0.022 0-0.034 0-14.138 0-25.6 11.462-25.6 25.6 0 12.816 9.418 23.433 21.711 25.307l0.142 0.018 3.781 0.276h433.231zM354.619 690.215c0.010 0 0.022 0 0.034 0 14.138 0 25.6-11.462 25.6-25.6 0-12.816-9.418-23.433-21.711-25.307l-0.142-0.018-3.781-0.276h-36.943c-0.010 0-0.022 0-0.034 0-14.138 0-25.6 11.462-25.6 25.6 0 12.816 9.418 23.433 21.711 25.307l0.142 0.018 3.781 0.276h36.943zM354.619 296.369c0.010 0 0.022 0 0.034 0 14.138 0 25.6-11.462 25.6-25.6 0-12.816-9.418-23.433-21.711-25.307l-0.142-0.018-3.781-0.276h-36.943c-0.010 0-0.022 0-0.034 0-14.138 0-25.6 11.462-25.6 25.6 0 12.816 9.418 23.433 21.711 25.307l0.142 0.018 3.781 0.276h36.943zM233.984 690.215c0.010 0 0.022 0 0.034 0 14.138 0 25.6-11.462 25.6-25.6 0-12.816-9.418-23.433-21.711-25.307l-0.142-0.018-3.781-0.276h-36.903c-0.010 0-0.022 0-0.034 0-14.138 0-25.6 11.462-25.6 25.6 0 12.816 9.418 23.433 21.711 25.307l0.142 0.018 3.781 0.276h36.903zM233.984 296.369c0.010 0 0.022 0 0.034 0 14.138 0 25.6-11.462 25.6-25.6 0-12.816-9.418-23.433-21.711-25.307l-0.142-0.018-3.781-0.276h-36.903c-0.010 0-0.022 0-0.034 0-14.138 0-25.6 11.462-25.6 25.6 0 12.816 9.418 23.433 21.711 25.307l0.142 0.018 3.781 0.276h36.903zM630.311 414.523c0.002 0 0.003 0 0.005 0 12.804 0 23.413-9.4 25.301-21.676l0.018-0.143 0.276-3.781v-39.385c0-0.010 0-0.022 0-0.034 0-14.138-11.462-25.6-25.6-25.6-12.816 0-23.433 9.418-25.307 21.711l-0.018 0.142-0.276 3.781v39.385c0 14.138 11.462 25.6 25.6 25.6v0zM630.311 611.446c0.002 0 0.003 0 0.005 0 12.804 0 23.413-9.4 25.301-21.676l0.018-0.143 0.276-3.781v-39.385c0-0.010 0-0.022 0-0.034 0-14.138-11.462-25.6-25.6-25.6-12.816 0-23.433 9.418-25.307 21.711l-0.018 0.142-0.276 3.781v39.385c0 14.138 11.462 25.6 25.6 25.6v0zM708.923 572.062c0.010 0 0.022 0 0.034 0 14.138 0 25.6-11.462 25.6-25.6 0-12.816-9.418-23.433-21.711-25.307l-0.142-0.018-3.781-0.276h-118.154c-0.004 0-0.009 0-0.014 0-7.613 0-13.785-6.172-13.785-13.785 0-6.642 4.698-12.187 10.952-13.493l0.090-0.016 2.757-0.276h78.769c0.017 0 0.036 0 0.056 0 35.89 0 64.985-29.095 64.985-64.985 0-33.941-26.020-61.805-59.201-64.731l-0.247-0.018-5.593-0.236h-118.154c-0.010 0-0.022 0-0.034 0-14.138 0-25.6 11.462-25.6 25.6 0 12.816 9.418 23.433 21.711 25.307l0.142 0.018 3.781 0.276h118.154c0.004 0 0.009 0 0.014 0 7.613 0 13.785 6.172 13.785 13.785 0 6.642-4.698 12.187-10.952 13.493l-0.090 0.016-2.757 0.276h-78.769c-0.017 0-0.036 0-0.056 0-35.89 0-64.985 29.095-64.985 64.985 0 33.941 26.020 61.805 59.201 64.731l0.247 0.018 5.593 0.236h118.154zM472.615 926.523c0.004 0 0.008 0 0.013 0 55.314 0 100.577-43.030 104.143-97.441l0.016-0.311 0.197-6.617v-78.769c0-0.010 0-0.022 0-0.034 0-14.138-11.462-25.6-25.6-25.6-12.816 0-23.433 9.418-25.307 21.711l-0.018 0.142-0.276 3.781v78.769c0 0.003 0 0.007 0 0.011 0 27.562-20.971 50.225-47.827 52.904l-0.222 0.018-5.12 0.236h-354.462c-0.003 0-0.007 0-0.011 0-27.562 0-50.225-20.971-52.904-47.827l-0.018-0.222-0.236-5.12v-748.308c0-0.003 0-0.007 0-0.011 0-27.562 20.971-50.225 47.827-52.904l0.222-0.018 5.12-0.236h354.462c0.003 0 0.007 0 0.011 0 27.562 0 50.225 20.971 52.904 47.827l0.018 0.222 0.236 5.12v118.154c0 0.010 0 0.022 0 0.034 0 14.138 11.462 25.6 25.6 25.6 12.816 0 23.433-9.418 25.307-21.711l0.018-0.142 0.276-3.781v-118.154c0-0.004 0-0.008 0-0.013 0-55.314-43.030-100.577-97.441-104.143l-0.311-0.016-6.617-0.197h-354.462c-0.004 0-0.008 0-0.013 0-55.314 0-100.577 43.030-104.143 97.441l-0.016 0.311-0.197 6.617v748.308c0 0.004 0 0.008 0 0.013 0 55.314 43.030 100.577 97.441 104.143l0.311 0.016 6.617 0.197h354.462z" />
<glyph unicode="&#xe934;" glyph-name="icon-download-bottom" d="M987.733 210.432c13.924 0 25.452-10.262 27.433-23.635l0.301-4.098v-81.631c-0.028-80.141-62.824-145.608-141.907-149.909l-8.237-0.225h-693.845c-80.158 0-145.645 62.815-149.922 141.906l-0.222 8.238v81.621c0 15.317 12.417 27.733 27.733 27.733 13.924 0 25.452-10.262 27.433-23.635l0.301-4.098v-81.621c0-50.015 38.783-90.973 87.916-94.44l6.761-0.238h693.836c50.013 0.017 90.965 38.795 94.447 87.917l0.24 6.76v81.621c0 15.317 12.417 27.733 27.733 27.733zM522.667 945.067c16.066 0 29.367-10.262 31.653-23.635l0.347-4.098-0.021-654.443 242.811 242.778c10.831 10.831 28.39 10.831 39.221 0 9.747-9.747 10.722-24.946 2.924-35.783l-2.924-3.438-282.352-282.342-0.174-1.7c-2.71-12.938-15.775-22.748-31.484-22.748l-2.557 0.052c-6.239-0.383-12.582 1.332-17.883 5.146l-3.438 2.924-298.667 298.667c-10.831 10.831-10.831 28.39 0 39.221 9.747 9.747 24.946 10.722 35.783 2.924l3.438-2.924 251.302-251.354 0.021 663.019c0 15.317 14.327 27.733 32 27.733z" />
<glyph unicode="&#xe935;" glyph-name="icon-giros-y-retiros" d="M809.196 923.412c5.908 1.954 12.709 3.081 19.773 3.081 26.687 0 49.617-16.087 59.622-39.092l0.163-0.42 2.087-5.514 96.571-299.874c1.993-5.964 3.143-12.831 3.143-19.966 0-26.515-15.88-49.321-38.648-59.426l-0.414-0.164-6.026-2.284-209.014-67.308c-2.411-0.829-5.188-1.308-8.078-1.308-14.138 0-25.6 11.462-25.6 25.6 0 10.085 5.832 18.809 14.308 22.981l0.15 0.067 3.545 1.418 209.014 67.308c5.584 1.846 9.543 7.019 9.543 13.116 0 0.555-0.033 1.102-0.097 1.64l0.006-0.065-0.591 2.678-96.571 299.874c-1.851 5.576-7.019 9.526-13.11 9.526-0.501 0-0.996-0.027-1.483-0.079l0.061 0.005-2.718-0.551-599.828-193.221c-5.598-1.839-9.568-7.018-9.568-13.124 0-0.51 0.028-1.014 0.082-1.51l-0.005 0.061 0.591-2.757 35.446-109.765c0.803-2.374 1.266-5.108 1.266-7.95 0-14.138-11.462-25.6-25.6-25.6-10.020 0-18.696 5.757-22.9 14.143l-0.067 0.148-1.457 3.545-35.446 109.804c-1.978 5.942-3.119 12.784-3.119 19.892 0 26.687 16.086 49.616 39.091 59.621l0.42 0.163 5.514 2.087 599.985 193.182zM288.177 747.717c4.339 8.324 12.905 13.909 22.775 13.909 14.138 0 25.6-11.462 25.6-25.6 0-2.803-0.451-5.501-1.283-8.025l0.052 0.181-1.575-3.86-89.009-173.489c-4.339-8.324-12.905-13.909-22.775-13.909-14.138 0-25.6 11.462-25.6 25.6 0 2.803 0.451 5.501 1.283 8.025l-0.052-0.181 1.575 3.86 89.009 173.489zM700.534 880.522c4.34 8.323 12.905 13.908 22.774 13.908 2.797 0 5.489-0.449 8.009-1.278l-0.181 0.052 3.86-1.575 173.45-88.97c8.324-4.339 13.909-12.905 13.909-22.775 0-14.138-11.462-25.6-25.6-25.6-2.803 0-5.501 0.451-8.025 1.283l0.181-0.052-3.86 1.575-173.45 88.97c-8.316 4.342-13.894 12.903-13.894 22.767 0 4.27 1.045 8.296 2.894 11.836l-0.067-0.141zM910.178 679.109c4.301 8.444 12.93 14.128 22.886 14.128 14.138 0 25.6-11.462 25.6-25.6 0-2.884-0.477-5.656-1.356-8.243l0.053 0.18-1.575-3.86-88.97-173.45c-4.339-8.324-12.905-13.909-22.775-13.909-14.138 0-25.6 11.462-25.6 25.6 0 2.803 0.451 5.501 1.283 8.025l-0.052-0.181 1.575 3.86 88.97 173.45zM620.465 738.501c2.341 0.779 5.036 1.229 7.836 1.229 14.138 0 25.6-11.462 25.6-25.6 0-9.991-5.723-18.645-14.070-22.863l-0.146-0.067-3.545-1.457-118.43-38.203c-3.071-1.008-5.25-3.85-5.25-7.2 0-3.58 2.488-6.579 5.829-7.362l0.051-0.010 2.284-0.118 110.198 7.326c1.21 0.089 2.621 0.139 4.044 0.139 32.453 0 58.762-26.309 58.762-58.762 0-24.094-14.501-44.801-35.252-53.87l-0.378-0.147-5.12-1.93-23.394-7.483c-2.279-0.737-4.902-1.161-7.624-1.161-14.138 0-25.6 11.462-25.6 25.6 0 9.907 5.628 18.5 13.861 22.756l0.143 0.067 3.545 1.457 23.394 7.522c3.071 1.008 5.25 3.85 5.25 7.2 0 3.58-2.488 6.579-5.829 7.362l-0.051 0.010-2.284 0.158-110.198-7.326c-1.21-0.089-2.621-0.139-4.044-0.139-32.453 0-58.762 26.309-58.762 58.762 0 24.094 14.501 44.801 35.252 53.87l0.378 0.147 5.12 1.93 118.43 38.164zM533.425 751.813c2.348 0.784 5.051 1.237 7.86 1.237 9.998 0 18.657-5.731 22.871-14.087l0.067-0.147 1.418-3.545 12.052-37.494c0.804-2.375 1.267-5.111 1.267-7.955 0-14.138-11.462-25.6-25.6-25.6-10.053 0-18.752 5.794-22.941 14.226l-0.067 0.149-1.418 3.545-12.052 37.455c-0.781 2.343-1.231 5.040-1.231 7.843 0 11.342 7.375 20.961 17.591 24.322l0.181 0.052zM649.846 572.062c0.004 0 0.008 0 0.013 0 55.314 0 100.577-43.030 104.143-97.441l0.016-0.311 0.197-6.617v-118.154c0-0.010 0-0.022 0-0.034 0-14.138-11.462-25.6-25.6-25.6-12.816 0-23.433 9.418-25.307 21.711l-0.018 0.142-0.276 3.781v118.154c0 0.003 0 0.007 0 0.011 0 27.562-20.971 50.225-47.827 52.904l-0.222 0.018-5.12 0.236h-512c-0.003 0-0.007 0-0.011 0-27.562 0-50.225-20.971-52.904-47.827l-0.018-0.222-0.236-5.12v-393.846c0-0.003 0-0.007 0-0.011 0-27.562 20.971-50.225 47.827-52.904l0.222-0.018 5.12-0.236h512c0.003 0 0.007 0 0.011 0 27.562 0 50.225 20.971 52.904 47.827l0.018 0.222 0.236 5.12v118.154c0 0.010 0 0.022 0 0.034 0 14.138 11.462 25.6 25.6 25.6 12.816 0 23.433-9.418 25.307-21.711l0.018-0.142 0.276-3.781v-118.154c0-0.004 0-0.008 0-0.013 0-55.314-43.030-100.577-97.441-104.143l-0.311-0.016-6.617-0.197h-512c-0.004 0-0.008 0-0.013 0-55.314 0-100.577 43.030-104.143 97.441l-0.016 0.311-0.197 6.617v393.846c0 0.004 0 0.008 0 0.013 0 55.314 43.030 100.577 97.441 104.143l0.311 0.016 6.617 0.197h512zM177.388 572.062c0.002 0 0.003 0 0.005 0 12.804 0 23.413-9.4 25.301-21.676l0.018-0.143 0.276-3.781v-551.385c0-0.010 0-0.022 0-0.034 0-14.138-11.462-25.6-25.6-25.6-12.816 0-23.433 9.418-25.307 21.711l-0.018 0.142-0.276 3.781v551.385c0 14.138 11.462 25.6 25.6 25.6v0zM728.615 375.138h-137.846c-57.642 0-104.369-46.728-104.369-104.369s46.728-104.369 104.369-104.369h137.846c35.89 0 64.985 29.095 64.985 64.985v0 78.769c0 35.89-29.095 64.985-64.985 64.985v0zM590.769 323.938h137.846c7.613 0 13.785-6.172 13.785-13.785v0-78.769c0-7.613-6.172-13.785-13.785-13.785v0h-137.846c-29.365 0-53.169 23.805-53.169 53.169s23.805 53.169 53.169 53.169v0zM679.542 306.215l4.45-0.276c17.568-2.287 30.996-17.158 30.996-35.166 0-19.576-15.87-35.446-35.446-35.446s-35.446 15.87-35.446 35.446c0 18.007 13.428 32.879 30.817 35.147l0.179 0.019 4.45 0.276z" />
<glyph unicode="&#xe936;" glyph-name="icon-pagar-tc" horiz-adv-x="1479" d="M1280.228 940.089h-1080.889c-83.26 0-150.756-67.496-150.756-150.756v0-682.667c0-83.26 67.496-150.756 150.756-150.756h1080.889c83.26 0 150.756 67.496 150.756 150.756v682.667c0 83.26-67.496 150.756-150.756 150.756v0zM199.339 866.133h1080.889c42.439 0 76.8-34.361 76.8-76.8v-682.667c0-42.415-34.385-76.8-76.8-76.8v0h-1080.889c-42.415 0-76.8 34.385-76.8 76.8v682.667c0 42.439 34.361 76.8 76.8 76.8zM1394.005 712.533c0.015 0 0.032 0 0.049 0 20.422 0 36.978-16.556 36.978-36.978 0-18.513-13.604-33.848-31.361-36.554l-0.205-0.026-5.461-0.398h-1308.444c-0.015 0-0.032 0-0.049 0-20.422 0-36.978 16.556-36.978 36.978 0 18.513 13.604 33.848 31.361 36.554l0.205 0.026 5.461 0.398h1308.444zM1223.339 484.978c0.015 0 0.032 0 0.049 0 20.422 0 36.978-16.556 36.978-36.978 0-18.513-13.604-33.848-31.361-36.554l-0.205-0.026-5.461-0.398h-170.667c-0.015 0-0.032 0-0.049 0-20.422 0-36.978 16.556-36.978 36.978 0 18.513 13.604 33.848 31.361 36.554l0.205 0.026 5.461 0.398h170.667zM711.339 484.978c0.015 0 0.032 0 0.049 0 20.422 0 36.978-16.556 36.978-36.978 0-18.513-13.604-33.848-31.361-36.554l-0.205-0.026-5.461-0.398h-455.111c-0.015 0-0.032 0-0.049 0-20.422 0-36.978 16.556-36.978 36.978 0 18.513 13.604 33.848 31.361 36.554l0.205 0.026 5.461 0.398h455.111zM426.894 314.311c0.015 0 0.032 0 0.049 0 20.422 0 36.978-16.556 36.978-36.978 0-18.513-13.604-33.848-31.361-36.554l-0.205-0.026-5.461-0.398h-170.667c-0.015 0-0.032 0-0.049 0-20.422 0-36.978 16.556-36.978 36.978 0 18.513 13.604 33.848 31.361 36.554l0.205 0.026 5.461 0.398h170.667z" />
<glyph unicode="&#xe937;" glyph-name="icon-recarga-celular" horiz-adv-x="860" d="M573.44 167.424c0.011 0 0.023 0 0.036 0 14.704 0 26.624-11.92 26.624-26.624 0-13.329-9.795-24.37-22.58-26.319l-0.148-0.019-3.932-0.287h-532.48c-0.011 0-0.023 0-0.036 0-14.704 0-26.624 11.92-26.624 26.624 0 13.329 9.795 24.37 22.58 26.319l0.148 0.019 3.932 0.287h532.48zM307.2 95.744l4.628-0.287c18.27-2.378 32.236-17.845 32.236-36.572 0-20.359-16.505-36.864-36.864-36.864s-36.864 16.505-36.864 36.864c0 18.728 13.965 34.194 32.050 36.552l0.186 0.020 4.628 0.287zM327.68 945.664c0.011 0 0.023 0 0.036 0 14.704 0 26.624-11.92 26.624-26.624 0-13.329-9.795-24.37-22.58-26.319l-0.148-0.019-3.932-0.287h-204.8c-0.003 0-0.007 0-0.011 0-28.664 0-52.234-21.81-55.020-49.741l-0.019-0.231-0.246-5.325v-778.24c0-0.003 0-0.007 0-0.011 0-28.664 21.81-52.234 49.741-55.020l0.231-0.019 5.325-0.246h368.64c0.003 0 0.007 0 0.011 0 28.664 0 52.234 21.81 55.020 49.741l0.019 0.231 0.246 5.325v266.24c0 0.011 0 0.023 0 0.036 0 14.704 11.92 26.624 26.624 26.624 13.329 0 24.37-9.795 26.319-22.58l0.019-0.148 0.287-3.932v-266.24c0-0.004 0-0.009 0-0.014 0-57.526-44.751-104.6-101.339-108.309l-0.324-0.017-6.881-0.205h-368.64c-0.004 0-0.009 0-0.014 0-57.526 0-104.6 44.751-108.309 101.339l-0.017 0.324-0.205 6.881v778.24c0 0.004 0 0.009 0 0.014 0 57.526 44.751 104.6 101.339 108.309l0.324 0.017 6.881 0.205h204.8zM573.44 863.744c0.002 0 0.003 0 0.005 0 13.316 0 24.349-9.776 26.313-22.543l0.019-0.149 0.287-3.932v-32.195c0-0.011 0-0.023 0-0.036 0-14.704-11.92-26.624-26.624-26.624-13.329 0-24.37 9.795-26.319 22.58l-0.019 0.148-0.287 3.932v32.195c0 14.704 11.92 26.624 26.624 26.624v0zM634.88 822.784c0.011 0 0.023 0 0.036 0 14.704 0 26.624-11.92 26.624-26.624 0-13.329-9.795-24.37-22.58-26.319l-0.148-0.019-3.932-0.287h-83.272c-15.642-0.016-28.317-12.7-28.317-28.344 0-10.258 5.449-19.243 13.61-24.219l0.125-0.071 4.014-2.007 84.582-33.833c30.245-12.395 51.162-41.607 51.162-75.705 0-42.785-32.932-77.879-74.831-81.316l-0.293-0.019-6.472-0.246h-83.19c-0.011 0-0.023 0-0.036 0-14.704 0-26.624 11.92-26.624 26.624 0 13.329 9.795 24.37 22.58 26.319l0.148 0.019 3.932 0.287h83.149c0.004 0 0.009 0 0.013 0 15.654 0 28.344 12.69 28.344 28.344 0 10.258-5.449 19.243-13.61 24.219l-0.125 0.071-4.014 2.007-84.582 33.833c-30.245 12.395-51.162 41.607-51.162 75.705 0 42.785 32.932 77.879 74.831 81.316l0.293 0.019 6.472 0.246h83.272zM573.44 568.259c0.002 0 0.003 0 0.005 0 13.316 0 24.349-9.776 26.313-22.543l0.019-0.149 0.287-3.932v-32.195c0-0.011 0-0.023 0-0.036 0-14.704-11.92-26.624-26.624-26.624-13.329 0-24.37 9.795-26.319 22.58l-0.019 0.148-0.287 3.932v32.195c0 14.704 11.92 26.624 26.624 26.624v0zM573.44 945.664c-150.434 0-272.384-121.95-272.384-272.384s121.95-272.384 272.384-272.384v0c150.434 0 272.384 121.95 272.384 272.384s-121.95 272.384-272.384 272.384v0zM573.44 892.416c121.025 0 219.136-98.111 219.136-219.136s-98.111-219.136-219.136-219.136v0c-121.025 0-219.136 98.111-219.136 219.136s98.111 219.136 219.136 219.136v0z" />
<glyph unicode="&#xe938;" glyph-name="icon-generar-certificado" horiz-adv-x="866" d="M621.962 926.523h-523.5c-35.89 0-64.985-29.095-64.985-64.985v0-827.077c0-35.879 29.105-64.985 64.985-64.985h669.538c35.89 0 64.985 29.095 64.985 64.985v0 681.078c0 0.006 0 0.014 0 0.022 0 17.94-7.269 34.181-19.023 45.941l-145.998 146.038c-11.761 11.73-27.992 18.983-45.917 18.983-0.030 0-0.059 0-0.089 0h0.005zM98.462 875.323h523.579c0.012 0 0.026 0 0.040 0 3.796 0 7.235-1.535 9.727-4.018v0l145.92-145.999c2.506-2.496 4.057-5.95 4.057-9.766 0 0 0-0.001 0-0.001v0-681.078c0-7.613-6.172-13.785-13.785-13.785v0h-669.538c-7.613 0-13.785 6.172-13.785 13.785v0 827.077c0 7.613 6.172 13.785 13.785 13.785v0zM689.231 729.639c0.010 0 0.022 0 0.034 0 14.138 0 25.6-11.462 25.6-25.6 0-12.816-9.418-23.433-21.711-25.307l-0.142-0.018-3.781-0.276h-157.538c-0.010 0-0.022 0-0.034 0-14.138 0-25.6 11.462-25.6 25.6 0 12.816 9.418 23.433 21.711 25.307l0.142 0.018 3.781 0.276h157.538zM689.231 375.178c0.010 0 0.022 0 0.034 0 14.138 0 25.6-11.462 25.6-25.6 0-12.816-9.418-23.433-21.711-25.307l-0.142-0.018-3.781-0.276h-512c-0.010 0-0.022 0-0.034 0-14.138 0-25.6 11.462-25.6 25.6 0 12.816 9.418 23.433 21.711 25.307l0.142 0.018 3.781 0.276h512zM689.231 257.024c0.010 0 0.022 0 0.034 0 14.138 0 25.6-11.462 25.6-25.6 0-12.816-9.418-23.433-21.711-25.307l-0.142-0.018-3.781-0.276h-512c-0.010 0-0.022 0-0.034 0-14.138 0-25.6 11.462-25.6 25.6 0 12.816 9.418 23.433 21.711 25.307l0.142 0.018 3.781 0.276h512zM689.231 138.87c0.010 0 0.022 0 0.034 0 14.138 0 25.6-11.462 25.6-25.6 0-12.816-9.418-23.433-21.711-25.307l-0.142-0.018-3.781-0.276h-512c-0.010 0-0.022 0-0.034 0-14.138 0-25.6 11.462-25.6 25.6 0 12.816 9.418 23.433 21.711 25.307l0.142 0.018 3.781 0.276h512zM689.231 611.486c0.010 0 0.022 0 0.034 0 14.138 0 25.6-11.462 25.6-25.6 0-12.816-9.418-23.433-21.711-25.307l-0.142-0.018-3.781-0.276h-157.538c-0.010 0-0.022 0-0.034 0-14.138 0-25.6 11.462-25.6 25.6 0 12.816 9.418 23.433 21.711 25.307l0.142 0.018 3.781 0.276h157.538zM689.231 493.332c0.010 0 0.022 0 0.034 0 14.138 0 25.6-11.462 25.6-25.6 0-12.816-9.418-23.433-21.711-25.307l-0.142-0.018-3.781-0.276h-157.538c-0.010 0-0.022 0-0.034 0-14.138 0-25.6 11.462-25.6 25.6 0 12.816 9.418 23.433 21.711 25.307l0.142 0.018 3.781 0.276h157.538zM413.538 769.024c0.002 0 0.003 0 0.005 0 12.804 0 23.413-9.4 25.301-21.676l0.018-0.143 0.276-3.781v-39.385c0-0.010 0-0.022 0-0.034 0-14.138-11.462-25.6-25.6-25.6-12.816 0-23.433 9.418-25.307 21.711l-0.018 0.142-0.276 3.742v13.824h-185.108v-13.824c0-0.002 0-0.003 0-0.005 0-12.804-9.4-23.413-21.676-25.301l-0.143-0.018-3.781-0.276c-0.002 0-0.003 0-0.005 0-12.804 0-23.413 9.4-25.301 21.676l-0.018 0.143-0.276 3.781v39.385c0 0.002 0 0.003 0 0.005 0 12.804 9.4 23.413 21.676 25.301l0.143 0.018 3.781 0.276h236.308zM295.385 769.024c0.002 0 0.003 0 0.005 0 12.804 0 23.413-9.4 25.301-21.676l0.018-0.143 0.276-3.781v-275.692c0-0.010 0-0.022 0-0.034 0-14.138-11.462-25.6-25.6-25.6-12.816 0-23.433 9.418-25.307 21.711l-0.018 0.142-0.276 3.742v275.692c0 14.138 11.462 25.6 25.6 25.6v0zM374.154 493.332c0.010 0 0.022 0 0.034 0 14.138 0 25.6-11.462 25.6-25.6 0-12.816-9.418-23.433-21.711-25.307l-0.142-0.018-3.781-0.276h-157.538c-0.010 0-0.022 0-0.034 0-14.138 0-25.6 11.462-25.6 25.6 0 12.816 9.418 23.433 21.711 25.307l0.142 0.018 3.781 0.276h157.538z" />
<glyph unicode="&#xe939;" glyph-name="icon-ver-bolsillos" horiz-adv-x="866" d="M450.954 453.908c0.002 0 0.003 0 0.005 0 12.804 0 23.413-9.4 25.301-21.676l0.018-0.143 0.276-3.781v-433.231c0-0.010 0-0.022 0-0.034 0-14.138-11.462-25.6-25.6-25.6-12.816 0-23.433 9.418-25.307 21.711l-0.018 0.142-0.276 3.781v433.231c0 14.138 11.462 25.6 25.6 25.6v0zM693.406 331.855c3.661 2.14 8.061 3.404 12.756 3.404 14.138 0 25.6-11.462 25.6-25.6 0-8.786-4.426-16.539-11.171-21.149l-0.088-0.057c-47.892-29.932-93.657-73.767-136.468-127.882-28.063-35.411-54.921-75.092-78.74-116.734l-2.471-4.689c-6.183-10.87-11.737-21.15-16.699-30.72l-4.726-9.255c-3.584-7.129-5.986-12.17-7.129-14.69-4.13-8.931-13.012-15.015-23.316-15.015-14.144 0-25.61 11.466-25.61 25.61 0 3.84 0.845 7.483 2.36 10.753l-0.066-0.158 5.829 12.091 2.166 4.411c6.42 12.761 13.982 26.939 22.646 42.22 27.711 48.821 56.027 90.639 87.231 130.067l-1.608-2.107c46.159 58.329 96.020 106.102 149.504 139.5zM192.709 303.616c4.557 7.49 12.675 12.417 21.944 12.417 4.854 0 9.393-1.351 13.261-3.698l-0.114 0.064c24.655-14.769 47.655-30.287 69.002-46.474 63.488-48.049 110.474-99.801 143.281-151.828 20.086-31.862 31.074-57.147 35.486-72.586 0.646-2.141 1.018-4.601 1.018-7.148 0-14.138-11.462-25.6-25.6-25.6-10.336 0-19.241 6.125-23.284 14.944l-0.066 0.16-2.639 7.601c-1.839 5.041-3.327 8.656-4.917 12.217l0.506-1.268c-7.673 17.246-15.619 31.799-24.572 45.64l0.784-1.293c-29.617 46.907-72.389 94.090-130.914 138.358-19.889 15.045-41.354 29.538-64.394 43.402-7.49 4.557-12.417 12.675-12.417 21.944 0 4.854 1.351 9.393 3.698 13.261l-0.064-0.114zM791.355 466.078c-24.143-18.274-42.26-25.876-82.55-36.628l-27.963-7.483c-28.081-7.956-44.898-15.084-64.591-28.16l-5.908-4.135c-59.313-43.481-67.348-112.246-0.67-161.753l3.663-7.759c41.905-84.244 120.674-80.896 180.539-17.644 52.894 75.54 65.772 167.778 37.14 251.431-3.551 10.156-13.050 17.31-24.221 17.31-5.827 0-11.199-1.947-15.502-5.226l0.063 0.046zM791.040 404.953l1.497-9.177c1.426-9.547 2.24-20.564 2.24-31.772 0-48.373-15.166-93.203-41.003-129.995l0.481 0.723c-38.006-39.778-76.406-39.778-100.037 19.298-1.972 4.863-5.234 8.86-9.364 11.68l-0.088 0.057c-42.693 28.83-38.873 59.55-0.079 85.465 14.257 9.452 27.097 14.966 50.215 21.504l38.951 10.476c23.631 6.695 40.881 12.997 57.186 21.74zM47.143 385.063c-8.201-4.377-13.687-12.877-13.687-22.659 0-7.208 2.979-13.721 7.773-18.373l0.006-0.006c8.468-8.192 15.596-16.699 21.858-25.915l4.726-7.286c5.12-8.35 9.334-16.738 15.714-31.114l6.065-13.863c14.572-33.674 24.025-50.767 41.551-69.868l4.805-5.002c48.522-48.286 113.349-45.765 149.386 22.41l6.774 4.569c70.853 50.649 56.281 122.801-10.122 168.724-76.682 37.691-162.658 36.352-234.85-1.575zM256.197 342.607c39.778-27.884 44.898-60.652-3.545-89.324-4.408-2.644-7.882-6.447-10.055-10.992l-0.066-0.154c-19.377-41.157-45.765-41.945-73.649-11.579-10.082 11.028-16.738 21.583-25.364 40.094l-10.437 23.631c-11.225 25.639-16.935 36.746-27.609 52.539l-4.214 5.868 9.649 2.954c16.647 4.869 35.771 7.67 55.549 7.67 32.674 0 63.563-7.644 90.975-21.242l-1.195 0.536zM510.031 808.369c0.010 0 0.022 0 0.034 0 14.138 0 25.6-11.462 25.6-25.6 0-12.816-9.418-23.433-21.711-25.307l-0.142-0.018-3.781-0.276h-80.069c-15.041-0.015-27.228-12.211-27.228-27.254 0-9.863 5.239-18.503 13.087-23.287l0.12-0.068 3.86-1.93 81.329-32.532c29.082-11.918 49.194-40.007 49.194-72.793 0-41.14-31.665-74.884-71.953-78.189l-0.281-0.019-6.223-0.236h-79.99c-0.010 0-0.022 0-0.034 0-14.138 0-25.6 11.462-25.6 25.6 0 12.816 9.418 23.433 21.711 25.307l0.142 0.018 3.781 0.276h79.951c0.004 0 0.008 0 0.013 0 15.052 0 27.254 12.202 27.254 27.254 0 9.863-5.239 18.503-13.087 23.287l-0.12 0.068-3.86 1.93-81.329 32.532c-29.082 11.918-49.194 40.007-49.194 72.793 0 41.14 31.665 74.884 71.953 78.189l0.281 0.019 6.223 0.236h80.069zM450.954 572.062c0.002 0 0.003 0 0.005 0 12.804 0 23.413-9.4 25.301-21.676l0.018-0.143 0.276-3.781v-39.385c0-0.010 0-0.022 0-0.034 0-14.138-11.462-25.6-25.6-25.6-12.816 0-23.433 9.418-25.307 21.711l-0.018 0.142-0.276 3.781v39.385c0 14.138 11.462 25.6 25.6 25.6v0zM450.954 847.754c0.002 0 0.003 0 0.005 0 12.804 0 23.413-9.4 25.301-21.676l0.018-0.143 0.276-3.781v-39.385c0-0.010 0-0.022 0-0.034 0-14.138-11.462-25.6-25.6-25.6-12.816 0-23.433 9.418-25.307 21.711l-0.018 0.142-0.276 3.781v39.385c0 14.138 11.462 25.6 25.6 25.6v0zM450.954 926.523c-144.648 0-261.908-117.26-261.908-261.908s117.26-261.908 261.908-261.908v0c144.648 0 261.908 117.26 261.908 261.908s-117.26 261.908-261.908 261.908v0zM450.954 875.323c116.371 0 210.708-94.337 210.708-210.708s-94.337-210.708-210.708-210.708v0c-116.371 0-210.708 94.337-210.708 210.708s94.337 210.708 210.708 210.708v0z" />
<glyph unicode="&#xe93a;" glyph-name="icon-pagar-obligacion" d="M193.877 755.627c5.039 5.146 12.058 8.337 19.822 8.337 15.317 0 27.733-12.417 27.733-27.733 0-6.189-2.027-11.904-5.453-16.518l0.053 0.074-2.901-3.413-149.333-149.333c-5.039-5.146-12.058-8.337-19.822-8.337-15.317 0-27.733 12.417-27.733 27.733 0 6.189 2.027 11.904 5.453 16.518l-0.053-0.074 2.901 3.413 149.333 149.333zM44.544 392.96c5.020 5.027 11.959 8.136 19.624 8.136 6.090 0 11.721-1.963 16.296-5.29l-0.080 0.055 3.413-2.901 149.333-149.333c5.146-5.039 8.337-12.058 8.337-19.822 0-15.317-12.417-27.733-27.733-27.733-6.189 0-11.904 2.027-16.518 5.453l0.074-0.053-3.413 2.901-149.333 149.333c-5.028 5.020-8.139 11.96-8.139 19.627s3.111 14.606 8.139 19.626v0zM938.667 763.733c25.301 0 46.080-19.157 48.768-43.733l0.299-5.333v-448c0-0.011 0-0.024 0-0.037 0-15.317-12.417-27.733-27.733-27.733-13.884 0-25.386 10.203-27.415 23.52l-0.019 0.154-0.299 4.096-0.043 441.643h-840.533v-456.533l356.309-0.043c0.002 0 0.004 0 0.005 0 13.871 0 25.364-10.184 27.41-23.483l0.020-0.155 0.299-4.096c0-0.002 0-0.004 0-0.005 0-13.871-10.184-25.364-23.483-27.41l-0.155-0.020-4.096-0.299h-362.667c-25.217 0.004-45.988 19.030-48.748 43.51l-0.020 0.224-0.299 5.333v469.333c0 25.301 19.157 46.080 43.733 48.768l5.333 0.299h853.333zM791.211 755.627c5.020 5.027 11.959 8.136 19.624 8.136 6.090 0 11.721-1.963 16.296-5.29l-0.080 0.055 3.413-2.901 149.333-149.333c5.146-5.039 8.337-12.058 8.337-19.822 0-15.317-12.417-27.733-27.733-27.733-6.189 0-11.904 2.027-16.518 5.453l0.074-0.053-3.413 2.901-149.333 149.333c-5.028 5.020-8.139 11.96-8.139 19.627s3.111 14.606 8.139 19.626v0zM267.264 148.693c4.48 3.239 10.084 5.182 16.142 5.182 7.681 0 14.632-3.122 19.655-8.167l0.001-0.001 2.901-3.456 36.779-51.456c2.402-3.332 4.103-7.328 4.8-11.66l0.021-0.159 0.341-4.309v-106.667c0-0.011 0-0.024 0-0.037 0-15.317-12.417-27.733-27.733-27.733-13.884 0-25.386 10.203-27.415 23.52l-0.019 0.154-0.299 4.096-0.043 97.877-31.573 44.117c-3.239 4.48-5.182 10.084-5.182 16.142 0 7.681 3.122 14.632 8.167 19.655l0.001 0.001 3.456 2.901zM298.667 850.688c0.007 0 0.014 0 0.022 0 48.351 0 87.965-37.407 91.48-84.86l0.018-0.303 0.213-8.192c0-0.011 0-0.024 0-0.037 0-15.317-12.417-27.733-27.733-27.733-13.884 0-25.386 10.203-27.415 23.52l-0.019 0.154-0.299 4.096v1.621c-0.045 19.996-16.265 36.188-36.267 36.188-18.392 0-33.587-13.691-35.948-31.437l-0.020-0.185-0.299-4.565v-22.955c0-0.011 0-0.024 0-0.037 0-15.317-12.417-27.733-27.733-27.733-13.884 0-25.386 10.203-27.415 23.52l-0.019 0.154-0.299 4.096v22.955c0 50.663 41.070 91.733 91.733 91.733v0zM426.667 893.355c0.007 0 0.014 0 0.022 0 48.351 0 87.965-37.407 91.48-84.86l0.018-0.303 0.213-6.571v-65.621c0-0.011 0-0.024 0-0.037 0-15.317-12.417-27.733-27.733-27.733-13.884 0-25.386 10.203-27.415 23.52l-0.019 0.154-0.299 4.096v65.621c-0.045 19.996-16.265 36.188-36.267 36.188-18.392 0-33.587-13.691-35.948-31.437l-0.020-0.185-0.299-4.565v-65.621c0-0.011 0-0.024 0-0.037 0-15.317-12.417-27.733-27.733-27.733-13.884 0-25.386 10.203-27.415 23.52l-0.019 0.154-0.299 4.096v65.621c0 50.663 41.070 91.733 91.733 91.733v0zM554.667 955.733c0.007 0 0.014 0 0.022 0 48.351 0 87.965-37.407 91.48-84.86l0.018-0.303 0.213-6.571v-128c0-0.011 0-0.024 0-0.037 0-15.317-12.417-27.733-27.733-27.733-13.884 0-25.386 10.203-27.415 23.52l-0.019 0.154-0.299 4.096v128c-0.045 19.996-16.265 36.188-36.267 36.188-18.392 0-33.587-13.691-35.948-31.437l-0.020-0.185-0.299-4.565v-128c0-0.011 0-0.024 0-0.037 0-15.317-12.417-27.733-27.733-27.733-13.884 0-25.386 10.203-27.415 23.52l-0.019 0.154-0.299 4.096v128c0 50.663 41.070 91.733 91.733 91.733v0zM682.667 893.355c0.007 0 0.014 0 0.022 0 48.351 0 87.965-37.407 91.48-84.86l0.018-0.303 0.213-6.571v-65.621c0-0.011 0-0.024 0-0.037 0-15.317-12.417-27.733-27.733-27.733-13.884 0-25.386 10.203-27.415 23.52l-0.019 0.154-0.299 4.096v65.621c-0.045 19.996-16.265 36.188-36.267 36.188-18.392 0-33.587-13.691-35.948-31.437l-0.020-0.185-0.299-4.565v-44.288c0-0.011 0-0.024 0-0.037 0-15.317-12.417-27.733-27.733-27.733-13.884 0-25.386 10.203-27.415 23.52l-0.019 0.154-0.299 4.096v44.288c0 50.663 41.070 91.733 91.733 91.733v0zM811.264 507.008l6.869-0.299c43.803-3.85 78.572-37.932 83.46-81.073l0.039-0.42 0.341-4.693 0.427-3.2v-193.323c0-0.016 0-0.035 0-0.054 0-33.969-14.98-64.439-38.694-85.165l-0.133-0.113-6.4-5.12-102.4-76.8c-12.499-9.44-20.973-23.639-22.719-39.852l-0.022-0.254-0.299-5.973v-42.667c0-0.011 0-0.024 0-0.037 0-15.317-12.417-27.733-27.733-27.733-13.884 0-25.386 10.203-27.415 23.52l-0.019 0.154-0.299 4.096v42.667c0 32.853 14.293 63.915 38.827 85.333l6.4 5.12 102.4 76.8c12.499 9.44 20.973 23.639 22.719 39.852l0.022 0.254 0.299 5.973-0.043 191.787-0.128 1.152c-0.785 16.69-12.739 30.375-28.518 33.791l-0.239 0.043-4.48 0.64c-0.901 0.080-1.948 0.125-3.007 0.125-15.748 0-29.152-10.037-34.162-24.064l-0.079-0.253-1.195-4.352-2.816-7.467-1.109-2.133v0.256l-12.8-88.149c-4.804-32.634-22.955-60.28-48.626-77.655l-0.398-0.254-6.827-4.267-69.973-39.979c-15.659-9.157-26.492-25.103-28.479-43.694l-0.022-0.253-0.299-6.144v-57.131c0-0.011 0-0.024 0-0.037 0-15.317-12.417-27.733-27.733-27.733-13.884 0-25.386 10.203-27.415 23.52l-0.019 0.154-0.299 4.096v57.045c0 0.086 0 0.188 0 0.291 0 38.834 19.578 73.096 49.402 93.453l0.39 0.251 6.827 4.267 70.101 40.107c13.472 7.804 23.348 20.549 27.22 35.697l0.086 0.399 1.152 5.76 13.227 90.453c0.939 4.267 2.347 8.405 4.053 12.416l1.067 2.219 0.725 2.816c10.929 36.315 42.817 62.818 81.281 65.604l0.298 0.017 7.168 0.213zM490.837 678.4c0.002 0 0.004 0 0.005 0 13.871 0 25.364-10.184 27.41-23.483l0.020-0.155 0.299-4.096v-42.667c0-0.011 0-0.024 0-0.037 0-15.317-12.417-27.733-27.733-27.733-13.884 0-25.386 10.203-27.415 23.52l-0.019 0.154-0.299 4.096v42.667c0 15.317 12.417 27.733 27.733 27.733v0zM554.667 635.733c0.011 0 0.024 0 0.037 0 15.317 0 27.733-12.417 27.733-27.733 0-13.884-10.203-25.386-23.52-27.415l-0.154-0.019-4.096-0.299h-86.571c-16.294-0.016-29.497-13.229-29.497-29.525 0-10.685 5.676-20.045 14.177-25.228l0.13-0.074 4.181-2.091 88.107-35.243c31.506-12.911 53.293-43.341 53.293-78.86 0-44.568-34.304-81.124-77.949-84.704l-0.305-0.020-6.741-0.256h-86.827c-0.011 0-0.024 0-0.037 0-15.317 0-27.733 12.417-27.733 27.733 0 13.884 10.203 25.386 23.52 27.415l0.154 0.019 4.096 0.299h86.827c16.294 0.016 29.497 13.229 29.497 29.525 0 10.685-5.676 20.045-14.177 25.228l-0.13 0.074-4.181 2.091-88.107 35.243c-31.506 12.911-53.293 43.341-53.293 78.86 0 44.568 34.304 81.124 77.949 84.704l0.305 0.020 6.741 0.256h86.571zM490.837 379.733c0.002 0 0.004 0 0.005 0 13.871 0 25.364-10.184 27.41-23.483l0.020-0.155 0.299-4.096v-42.667c0-0.011 0-0.024 0-0.037 0-15.317-12.417-27.733-27.733-27.733-13.884 0-25.386 10.203-27.415 23.52l-0.019 0.154-0.299 4.096v42.667c0 15.317 12.417 27.733 27.733 27.733v0z" />
<glyph unicode="&#xe93b;" glyph-name="icon-generar-extracto" horiz-adv-x="866" d="M621.962 926.523h-523.5c-35.89 0-64.985-29.095-64.985-64.985v0-827.077c0-35.879 29.105-64.985 64.985-64.985h669.538c35.89 0 64.985 29.095 64.985 64.985v0 681.078c0 0.006 0 0.014 0 0.022 0 17.94-7.269 34.181-19.023 45.941l-145.998 146.038c-11.761 11.73-27.992 18.983-45.917 18.983-0.030 0-0.059 0-0.089 0h0.005zM98.462 875.323h523.579c0.012 0 0.026 0 0.040 0 3.796 0 7.235-1.535 9.727-4.018v0l145.92-145.999c2.506-2.496 4.057-5.95 4.057-9.766 0 0 0-0.001 0-0.001v0-681.078c0-7.613-6.172-13.785-13.785-13.785v0h-669.538c-7.613 0-13.785 6.172-13.785 13.785v0 827.077c0 7.613 6.172 13.785 13.785 13.785v0zM689.231 729.639c0.010 0 0.022 0 0.034 0 14.138 0 25.6-11.462 25.6-25.6 0-12.816-9.418-23.433-21.711-25.307l-0.142-0.018-3.781-0.276h-236.308c-0.010 0-0.022 0-0.034 0-14.138 0-25.6 11.462-25.6 25.6 0 12.816 9.418 23.433 21.711 25.307l0.142 0.018 3.781 0.276h236.308zM689.231 375.178c0.010 0 0.022 0 0.034 0 14.138 0 25.6-11.462 25.6-25.6 0-12.816-9.418-23.433-21.711-25.307l-0.142-0.018-3.781-0.276h-512c-0.010 0-0.022 0-0.034 0-14.138 0-25.6 11.462-25.6 25.6 0 12.816 9.418 23.433 21.711 25.307l0.142 0.018 3.781 0.276h512zM256.158 768.985c0.002 0 0.003 0 0.005 0 12.804 0 23.413-9.4 25.301-21.676l0.018-0.143 0.276-3.781v-34.462c0-0.010 0-0.022 0-0.034 0-14.138-11.462-25.6-25.6-25.6-12.816 0-23.433 9.418-25.307 21.711l-0.018 0.142-0.276 3.781v34.462c0 14.138 11.462 25.6 25.6 25.6v0zM315.077 734.523c0.010 0 0.022 0 0.034 0 14.138 0 25.6-11.462 25.6-25.6 0-12.816-9.418-23.433-21.711-25.307l-0.142-0.018-3.781-0.276h-79.911c-13.785 0-24.773-7.956-26.86-17.408-1.694-7.601 2.757-15.793 11.934-20.441l3.702-1.575 81.329-28.436c35.21-12.406 56.359-46.434 48.64-81.369-7.089-32.020-36.273-54.745-70.38-57.305l-6.459-0.236h-80.148c-0.010 0-0.022 0-0.034 0-14.138 0-25.6 11.462-25.6 25.6 0 12.816 9.418 23.433 21.711 25.307l0.142 0.018 3.781 0.276h80.148c13.785 0 24.773 7.956 26.86 17.408 1.694 7.601-2.757 15.793-11.934 20.441l-3.702 1.575-81.329 28.436c-35.21 12.406-56.359 46.434-48.64 81.369 7.089 32.020 36.273 54.745 70.38 57.305l6.459 0.236h79.911zM256.158 527.754c0.002 0 0.003 0 0.005 0 12.804 0 23.413-9.4 25.301-21.676l0.018-0.143 0.276-3.781v-34.462c0-0.010 0-0.022 0-0.034 0-14.138-11.462-25.6-25.6-25.6-12.816 0-23.433 9.418-25.307 21.711l-0.018 0.142-0.276 3.781v34.462c0 14.138 11.462 25.6 25.6 25.6v0zM689.231 257.024c0.010 0 0.022 0 0.034 0 14.138 0 25.6-11.462 25.6-25.6 0-12.816-9.418-23.433-21.711-25.307l-0.142-0.018-3.781-0.276h-512c-0.010 0-0.022 0-0.034 0-14.138 0-25.6 11.462-25.6 25.6 0 12.816 9.418 23.433 21.711 25.307l0.142 0.018 3.781 0.276h512zM689.231 138.87c0.010 0 0.022 0 0.034 0 14.138 0 25.6-11.462 25.6-25.6 0-12.816-9.418-23.433-21.711-25.307l-0.142-0.018-3.781-0.276h-512c-0.010 0-0.022 0-0.034 0-14.138 0-25.6 11.462-25.6 25.6 0 12.816 9.418 23.433 21.711 25.307l0.142 0.018 3.781 0.276h512zM689.231 611.486c0.010 0 0.022 0 0.034 0 14.138 0 25.6-11.462 25.6-25.6 0-12.816-9.418-23.433-21.711-25.307l-0.142-0.018-3.781-0.276h-236.308c-0.010 0-0.022 0-0.034 0-14.138 0-25.6 11.462-25.6 25.6 0 12.816 9.418 23.433 21.711 25.307l0.142 0.018 3.781 0.276h236.308zM689.231 493.332c0.010 0 0.022 0 0.034 0 14.138 0 25.6-11.462 25.6-25.6 0-12.816-9.418-23.433-21.711-25.307l-0.142-0.018-3.781-0.276h-236.308c-0.010 0-0.022 0-0.034 0-14.138 0-25.6 11.462-25.6 25.6 0 12.816 9.418 23.433 21.711 25.307l0.142 0.018 3.781 0.276h236.308z" />
<glyph unicode="&#xe93c;" glyph-name="icon-arrows-diagrams-right-3" d="M404.053 641.28c11.349 11.392 29.141 12.373 41.643 3.115l3.584-3.115 170.667-170.667c11.392-11.349 12.373-29.141 3.115-41.643l-3.115-3.584-170.667-170.667c-12.501-12.501-32.725-12.501-45.227 0-11.392 11.349-12.373 29.141-3.115 41.643l3.115 3.584 148.011 148.053-148.053 148.053c-11.349 11.349-12.373 29.141-3.072 41.643l3.115 3.584z" />
</font>
</defs>
</svg>
